G75*
%MOIN*%
%OFA0B0*%
%FSLAX25Y25*%
%IPPOS*%
%LPD*%
%AMOC8*
5,1,8,0,0,1.08239X$1,22.5*
%
%ADD10C,0.12611*%
%ADD11R,0.06312X0.05131*%
%ADD12R,0.05131X0.06312*%
%ADD13R,0.04343X0.04540*%
%ADD14R,0.02769X0.02769*%
%ADD15C,0.06737*%
%ADD16R,0.04343X0.03950*%
%ADD17R,0.05918X0.06902*%
%ADD18R,0.01784X0.04540*%
%ADD19R,0.04540X0.01784*%
%ADD20R,0.13595X0.13595*%
%ADD21R,0.02965X0.04737*%
%ADD22R,0.08674X0.04619*%
%ADD23R,0.04619X0.08674*%
%ADD24R,0.17729X0.17729*%
%ADD25R,0.03556X0.01981*%
%ADD26R,0.01981X0.03556*%
%ADD27R,0.10643X0.10643*%
%ADD28R,0.05328X0.03162*%
%ADD29R,0.09068X0.07099*%
%ADD30R,0.02375X0.06706*%
%ADD31R,0.08280X0.08280*%
%ADD32C,0.10072*%
%ADD33C,0.13595*%
%ADD34C,0.06824*%
%ADD35C,0.06304*%
%ADD36R,0.04540X0.05524*%
%ADD37C,0.03778*%
D10*
X0013111Y0023238D03*
X0013111Y0168907D03*
X0013111Y0314577D03*
X0304450Y0314577D03*
X0304450Y0168907D03*
X0304450Y0023238D03*
D11*
X0204359Y0051439D03*
X0204359Y0058328D03*
X0188859Y0041328D03*
X0188859Y0034439D03*
X0108898Y0046998D03*
X0108898Y0053887D03*
X0108977Y0076290D03*
X0108977Y0083180D03*
X0076859Y0085908D03*
X0076859Y0092798D03*
X0039359Y0105939D03*
X0039359Y0112828D03*
X0038359Y0169439D03*
X0038359Y0176328D03*
X0048859Y0189675D03*
X0048859Y0196565D03*
X0058859Y0196446D03*
X0058859Y0189557D03*
X0058859Y0206408D03*
X0058859Y0213298D03*
X0073859Y0213534D03*
X0073859Y0206644D03*
X0083859Y0206644D03*
X0083859Y0213534D03*
X0048859Y0231408D03*
X0048859Y0238298D03*
X0048859Y0244675D03*
X0048859Y0251565D03*
X0104977Y0304408D03*
X0104977Y0311298D03*
X0114359Y0311439D03*
X0114359Y0318328D03*
X0123859Y0318328D03*
X0123859Y0311439D03*
X0114359Y0304298D03*
X0114359Y0297408D03*
G36*
X0127634Y0186681D02*
X0123172Y0182219D01*
X0119544Y0185847D01*
X0124006Y0190309D01*
X0127634Y0186681D01*
G37*
G36*
X0132506Y0181810D02*
X0128044Y0177348D01*
X0124416Y0180976D01*
X0128878Y0185438D01*
X0132506Y0181810D01*
G37*
X0143859Y0179557D03*
X0143859Y0186446D03*
G36*
X0155066Y0176834D02*
X0150604Y0181296D01*
X0154232Y0184924D01*
X0158694Y0180462D01*
X0155066Y0176834D01*
G37*
G36*
X0161876Y0170007D02*
X0157414Y0174469D01*
X0161042Y0178097D01*
X0165504Y0173635D01*
X0161876Y0170007D01*
G37*
G36*
X0166748Y0174879D02*
X0162286Y0179341D01*
X0165914Y0182969D01*
X0170376Y0178507D01*
X0166748Y0174879D01*
G37*
G36*
X0159938Y0181706D02*
X0155476Y0186168D01*
X0159104Y0189796D01*
X0163566Y0185334D01*
X0159938Y0181706D01*
G37*
G36*
X0167713Y0146918D02*
X0163251Y0142456D01*
X0159623Y0146084D01*
X0164085Y0150546D01*
X0167713Y0146918D01*
G37*
G36*
X0172584Y0142046D02*
X0168122Y0137584D01*
X0164494Y0141212D01*
X0168956Y0145674D01*
X0172584Y0142046D01*
G37*
X0235359Y0147057D03*
X0235359Y0153946D03*
X0235276Y0162372D03*
X0235276Y0169262D03*
D12*
X0168130Y0233868D03*
X0161241Y0233868D03*
X0116878Y0256427D03*
X0109989Y0256427D03*
X0109989Y0265809D03*
X0116878Y0265809D03*
X0116878Y0275427D03*
X0109989Y0275427D03*
X0093996Y0241309D03*
X0087107Y0241309D03*
X0087107Y0231427D03*
X0093996Y0231427D03*
X0088760Y0176545D03*
X0081870Y0176545D03*
X0081870Y0166427D03*
X0088760Y0166427D03*
X0088878Y0156427D03*
X0081989Y0156427D03*
X0081870Y0146427D03*
X0088760Y0146427D03*
X0088878Y0135679D03*
X0081989Y0135679D03*
X0081989Y0126427D03*
X0088878Y0126427D03*
X0088878Y0116427D03*
X0081989Y0116427D03*
X0081989Y0106545D03*
X0088878Y0106545D03*
X0091378Y0087309D03*
X0084489Y0087309D03*
X0083996Y0061427D03*
X0077107Y0061427D03*
X0057230Y0105927D03*
X0050340Y0105927D03*
X0049458Y0169309D03*
X0056348Y0169309D03*
X0118840Y0161427D03*
X0125730Y0161427D03*
X0125867Y0140549D03*
X0118978Y0140549D03*
X0118978Y0130785D03*
X0125867Y0130785D03*
X0135119Y0130667D03*
X0142008Y0130667D03*
X0141890Y0140431D03*
X0135000Y0140431D03*
X0157185Y0163002D03*
X0164075Y0163002D03*
X0243840Y0256427D03*
X0250730Y0256427D03*
X0250848Y0266427D03*
X0243958Y0266427D03*
X0243840Y0276427D03*
X0250730Y0276427D03*
X0250848Y0286781D03*
X0243958Y0286781D03*
X0243840Y0296427D03*
X0250730Y0296427D03*
X0250848Y0306427D03*
X0243958Y0306427D03*
X0228878Y0276427D03*
X0221989Y0276427D03*
X0221989Y0266427D03*
X0228878Y0266427D03*
X0060374Y0294892D03*
X0053485Y0294892D03*
D13*
X0073859Y0296486D03*
X0073859Y0284085D03*
D14*
X0065717Y0275927D03*
X0061780Y0275927D03*
X0068883Y0271427D03*
X0072820Y0271427D03*
D15*
X0238859Y0086388D03*
X0238859Y0076545D03*
X0238859Y0066703D03*
X0238859Y0056860D03*
X0238859Y0047018D03*
X0268859Y0047018D03*
X0268859Y0056860D03*
X0268859Y0066703D03*
X0268859Y0076545D03*
X0268859Y0086388D03*
X0268820Y0111939D03*
X0268820Y0121781D03*
X0268820Y0131624D03*
X0268820Y0141467D03*
X0268859Y0186900D03*
X0268859Y0196742D03*
X0268859Y0206585D03*
X0268859Y0216427D03*
X0268859Y0257254D03*
X0268859Y0267096D03*
X0268859Y0276939D03*
X0268859Y0286781D03*
X0268859Y0296624D03*
X0268859Y0306467D03*
X0091162Y0026427D03*
X0081320Y0026427D03*
X0053780Y0026427D03*
X0043938Y0026427D03*
D16*
X0049020Y0211467D03*
X0049020Y0218947D03*
X0041146Y0215207D03*
X0049020Y0261349D03*
X0049020Y0268829D03*
X0041146Y0265089D03*
X0213699Y0051388D03*
X0213699Y0043907D03*
X0221573Y0047647D03*
X0243817Y0138907D03*
X0243817Y0146388D03*
X0251691Y0142647D03*
D17*
X0056074Y0157785D03*
X0038357Y0157785D03*
X0038357Y0126486D03*
X0056074Y0126486D03*
X0057074Y0094167D03*
X0039357Y0094167D03*
X0039357Y0062868D03*
X0057074Y0062868D03*
D18*
X0063865Y0226426D03*
X0065833Y0226426D03*
X0067802Y0226426D03*
X0069770Y0226426D03*
X0071739Y0226426D03*
X0073707Y0226426D03*
X0075676Y0226426D03*
X0075676Y0245324D03*
X0073707Y0245324D03*
X0071739Y0245324D03*
X0069770Y0245324D03*
X0067802Y0245324D03*
X0065833Y0245324D03*
X0063865Y0245324D03*
D19*
X0060321Y0241780D03*
X0060321Y0239812D03*
X0060321Y0237843D03*
X0060321Y0235875D03*
X0060321Y0233906D03*
X0060321Y0231938D03*
X0060321Y0229969D03*
X0079219Y0229969D03*
X0079219Y0231938D03*
X0079219Y0233906D03*
X0079219Y0235875D03*
X0079219Y0237843D03*
X0079219Y0239812D03*
X0079219Y0241780D03*
D20*
X0069770Y0235875D03*
D21*
X0076899Y0079939D03*
X0084379Y0079939D03*
X0084379Y0069309D03*
X0080639Y0069309D03*
X0076899Y0069309D03*
D22*
X0133892Y0251427D03*
X0133892Y0256427D03*
X0133892Y0261427D03*
X0133892Y0266427D03*
X0133892Y0271427D03*
X0133892Y0276427D03*
X0133892Y0281427D03*
X0133892Y0286427D03*
X0133892Y0291427D03*
X0133892Y0296427D03*
X0133892Y0301427D03*
X0133892Y0306427D03*
X0133892Y0311427D03*
X0133892Y0316427D03*
X0204758Y0316427D03*
X0204758Y0311427D03*
X0204758Y0306427D03*
X0204758Y0301427D03*
X0204758Y0296427D03*
X0204758Y0291427D03*
X0204758Y0286427D03*
X0204758Y0281427D03*
X0204758Y0276427D03*
X0204758Y0271427D03*
X0204758Y0266427D03*
X0204758Y0261427D03*
X0204758Y0256427D03*
X0204758Y0251427D03*
D23*
X0191884Y0245522D03*
X0186884Y0245522D03*
X0181884Y0245522D03*
X0176884Y0245522D03*
X0171884Y0245522D03*
X0166884Y0245522D03*
X0161884Y0245522D03*
X0156884Y0245522D03*
X0151884Y0245522D03*
X0146884Y0245522D03*
D24*
X0166569Y0282136D03*
D25*
X0148818Y0166417D03*
X0148818Y0164448D03*
X0148818Y0162480D03*
X0148818Y0160511D03*
X0148818Y0158543D03*
X0148818Y0156574D03*
X0134054Y0156574D03*
X0134054Y0158543D03*
X0134054Y0160511D03*
X0134054Y0162480D03*
X0134054Y0164448D03*
X0134054Y0166417D03*
D26*
X0136515Y0168877D03*
X0138483Y0168877D03*
X0140452Y0168877D03*
X0142420Y0168877D03*
X0144389Y0168877D03*
X0146357Y0168877D03*
X0146357Y0154113D03*
X0144389Y0154113D03*
X0142420Y0154113D03*
X0140452Y0154113D03*
X0138483Y0154113D03*
X0136515Y0154113D03*
D27*
X0141436Y0161495D03*
D28*
X0217966Y0195368D03*
X0217966Y0200368D03*
X0217966Y0205368D03*
X0217966Y0210368D03*
X0240564Y0210368D03*
X0240564Y0205368D03*
X0240564Y0200368D03*
X0240564Y0195368D03*
D29*
X0078898Y0306427D03*
X0054489Y0306427D03*
D30*
X0061576Y0305443D03*
X0064135Y0305443D03*
X0066694Y0305443D03*
X0069253Y0305443D03*
X0071812Y0305443D03*
D31*
X0081654Y0316467D03*
X0051654Y0316467D03*
D32*
X0118839Y0055738D03*
X0179824Y0055738D03*
D33*
X0171831Y0043730D03*
X0126831Y0043730D03*
D34*
X0123229Y0027746D03*
X0133229Y0027746D03*
X0165434Y0027746D03*
X0175434Y0027746D03*
D35*
X0161851Y0068730D03*
X0151851Y0068730D03*
X0141851Y0068730D03*
X0131851Y0068730D03*
X0136851Y0078730D03*
X0146851Y0078730D03*
X0156851Y0078730D03*
X0166851Y0078730D03*
D36*
X0171364Y0154400D03*
X0178254Y0154400D03*
X0178254Y0163061D03*
X0171364Y0163061D03*
D37*
X0155158Y0157726D03*
X0143702Y0158986D03*
X0141418Y0163789D03*
X0138977Y0158986D03*
X0134386Y0151253D03*
X0132835Y0147490D03*
X0136413Y0146475D03*
X0140069Y0146752D03*
X0143647Y0146952D03*
X0157363Y0144262D03*
X0163501Y0137959D03*
X0176576Y0123711D03*
X0187993Y0139931D03*
X0187599Y0171191D03*
X0179017Y0186033D03*
X0169922Y0185994D03*
X0165513Y0191348D03*
X0158181Y0197547D03*
X0155546Y0194721D03*
X0152560Y0192530D03*
X0148932Y0190763D03*
X0159307Y0201393D03*
X0163963Y0208727D03*
X0155879Y0216831D03*
X0163186Y0221675D03*
X0177245Y0216467D03*
X0185674Y0229051D03*
X0189252Y0229695D03*
X0192736Y0233180D03*
X0190883Y0238412D03*
X0194154Y0253907D03*
X0190158Y0271467D03*
X0198699Y0277687D03*
X0198426Y0284262D03*
X0211930Y0263396D03*
X0214460Y0260866D03*
X0210751Y0254038D03*
X0226143Y0242096D03*
X0238898Y0226230D03*
X0242757Y0239734D03*
X0253859Y0231427D03*
X0248859Y0211427D03*
X0249804Y0191309D03*
X0250513Y0173120D03*
X0266221Y0163671D03*
X0278741Y0163199D03*
X0303032Y0203356D03*
X0280670Y0237687D03*
X0303032Y0274222D03*
X0280513Y0290600D03*
X0283229Y0318553D03*
X0239489Y0283081D03*
X0238974Y0276470D03*
X0232048Y0257844D03*
X0207232Y0236698D03*
X0207232Y0233120D03*
X0207523Y0229542D03*
X0207232Y0225964D03*
X0207232Y0222386D03*
X0207232Y0215230D03*
X0207314Y0211652D03*
X0207506Y0208074D03*
X0204685Y0205836D03*
X0196261Y0204065D03*
X0192363Y0196033D03*
X0189765Y0211191D03*
X0173347Y0198986D03*
X0148544Y0172451D03*
X0144850Y0175283D03*
X0135996Y0175278D03*
X0133466Y0177808D03*
X0117632Y0174907D03*
X0110142Y0191529D03*
X0110076Y0198353D03*
X0121333Y0196449D03*
X0103994Y0220038D03*
X0112465Y0245089D03*
X0107687Y0250679D03*
X0120792Y0244450D03*
X0126823Y0242429D03*
X0122622Y0252097D03*
X0125444Y0274052D03*
X0127833Y0284144D03*
X0141403Y0280625D03*
X0151182Y0282215D03*
X0160788Y0278199D03*
X0166694Y0282136D03*
X0170631Y0278199D03*
X0178347Y0268474D03*
X0170589Y0258196D03*
X0173859Y0251548D03*
X0174922Y0235522D03*
X0149646Y0257372D03*
X0178505Y0289038D03*
X0162690Y0305442D03*
X0160019Y0307831D03*
X0142560Y0311467D03*
X0143422Y0291234D03*
X0111576Y0282136D03*
X0092626Y0271112D03*
X0082009Y0285049D03*
X0077678Y0275522D03*
X0077166Y0268829D03*
X0072560Y0267530D03*
X0069387Y0259605D03*
X0063426Y0271112D03*
X0059686Y0280679D03*
X0052127Y0276152D03*
X0038111Y0288711D03*
X0041812Y0305325D03*
X0066694Y0316506D03*
X0091891Y0313632D03*
X0054450Y0241152D03*
X0054489Y0235719D03*
X0056271Y0232440D03*
X0056772Y0226073D03*
X0053111Y0226270D03*
X0048820Y0215244D03*
X0064253Y0218435D03*
X0073281Y0217807D03*
X0066772Y0209222D03*
X0066851Y0204695D03*
X0066652Y0201117D03*
X0075985Y0188947D03*
X0090198Y0196860D03*
X0088229Y0171427D03*
X0093662Y0171467D03*
X0082324Y0171467D03*
X0065158Y0148435D03*
X0064174Y0130128D03*
X0046457Y0129813D03*
X0045198Y0148632D03*
X0015631Y0140364D03*
X0047639Y0086585D03*
X0062717Y0082215D03*
X0047048Y0064419D03*
X0066497Y0059380D03*
X0068859Y0036427D03*
X0080906Y0079892D03*
X0102757Y0100382D03*
X0107402Y0095640D03*
X0111024Y0106558D03*
X0116555Y0108947D03*
X0125080Y0120876D03*
X0141930Y0124419D03*
X0149646Y0122293D03*
X0150119Y0109104D03*
X0138289Y0097312D03*
X0128505Y0094301D03*
X0149331Y0062963D03*
X0149253Y0042963D03*
X0150001Y0025640D03*
X0208308Y0028868D03*
X0215040Y0066703D03*
X0207506Y0089852D03*
X0194607Y0089813D03*
X0177442Y0108750D03*
X0223465Y0134537D03*
X0226536Y0159498D03*
X0225591Y0179577D03*
X0234213Y0105797D03*
X0274174Y0029183D03*
X0306969Y0049813D03*
X0303032Y0120679D03*
X0223032Y0292490D03*
X0230788Y0296309D03*
X0232442Y0301860D03*
X0230749Y0318750D03*
X0198288Y0307857D03*
X0072104Y0238817D03*
X0071986Y0232676D03*
X0066317Y0235865D03*
X0019568Y0278159D03*
X0015631Y0203356D03*
X0094686Y0138632D03*
X0094135Y0126388D03*
X0113820Y0152993D03*
X0117398Y0151793D03*
X0110828Y0155382D03*
X0015631Y0053750D03*
M02*
