%
M48
M72
T01C0.01378
T02C0.03504
T03C0.03937
T04C0.04016
T05C0.06181
T06C0.11811
T07C0.12795
%
T01
X15631Y44445
X47048Y55115
X62717Y72910
X47639Y77280
X66497Y50075
X80906Y70587
X93938Y97201
X107402Y86335
X109754Y107133
X125080Y111571
X131851Y104642
X131969Y99642
X137488Y99603
X137961Y104682
X141930Y115115
X149646Y112989
X150119Y99800
X128741Y91078
X128505Y84997
X128859Y62123
X149686Y49760
X143269Y33934
X155867Y31886
X168859Y62123
X196615Y83225
X177442Y99445
X190158Y122201
X170628Y141178
X163501Y128654
X157363Y134957
X155158Y148422
X143702Y149682
X141418Y154485
X138977Y149682
X134386Y141948
X132835Y138186
X136413Y137170
X140069Y137448
X143647Y137647
X148544Y163146
X144850Y165978
X135996Y165973
X133466Y168503
X143853Y182758
X152560Y183225
X155546Y185417
X158181Y188242
X159307Y192088
X164568Y185115
X172520Y178225
X166969Y172713
X172599Y166611
X199450Y175508
X207314Y202348
X207232Y205926
X207232Y209504
X207232Y213082
X207232Y216660
X207523Y220238
X207232Y223815
X207232Y227393
X192736Y223875
X189252Y220391
X185674Y219746
X190883Y229107
X194154Y244603
X190158Y262162
X198699Y268382
X198426Y274957
X198288Y298552
X178505Y279734
X170631Y268894
X166694Y272831
X160788Y268894
X151182Y272910
X143422Y281929
X127833Y274839
X125444Y264748
X111576Y272831
X92626Y261808
X82009Y275745
X72835Y267634
X77166Y259524
X72560Y258225
X63426Y261808
X59686Y271375
X52127Y266847
X38111Y279406
X41812Y296020
X65985Y307201
X91891Y304327
X142560Y302162
X160019Y298526
X162690Y296137
X178347Y259170
X173859Y242243
X170281Y242442
X174331Y225508
X164249Y216977
X155879Y207527
X163963Y199422
X189765Y201886
X226143Y232792
X210751Y244734
X214460Y251561
X211930Y254091
X232048Y248540
X236257Y267166
X239489Y273776
X223032Y283186
X232442Y292556
X230749Y309445
X280513Y281296
X303032Y264918
X280670Y228382
X253859Y222123
X242757Y230430
X238898Y216926
X248859Y202123
X249804Y182004
X250513Y163815
X266221Y154367
X303032Y194052
X303032Y111375
X306969Y40508
X274174Y19878
X215040Y57398
X208308Y19563
X227954Y109878
X199568Y148225
X223347Y155036
X225591Y170272
X149646Y248067
X130602Y234423
X122622Y242792
X120792Y235145
X112465Y235784
X107687Y241375
X103994Y210733
X110076Y189048
X110142Y182225
X121333Y187144
X117632Y165603
X110828Y146078
X113820Y143689
X117398Y142489
X94686Y129327
X94135Y117083
X64174Y120823
X65158Y139130
X45198Y139327
X46457Y120508
X15631Y131060
X66652Y191812
X66851Y195390
X66772Y199918
X64253Y209130
X73281Y208503
X56772Y216768
X53111Y216965
X56271Y223136
X54489Y226414
X54450Y231847
X48820Y205939
X75985Y179642
X90198Y187556
X88229Y162123
X93662Y162162
X82324Y162162
X15631Y194052
X19568Y268855
X68859Y27123
X283229Y309249
T02
X166851Y80174
X156851Y80174
X146851Y80174
X141851Y70174
X131851Y70174
X136851Y80174
X151851Y70174
X161851Y70174
T03
X91162Y17123
X81320Y17123
X53780Y17123
X43938Y17123
X238859Y37713
X238859Y47556
X238859Y57398
X238859Y67241
X238859Y77083
X268859Y77083
X268859Y67241
X268859Y57398
X268859Y47556
X268859Y37713
X268820Y102634
X268820Y112477
X268820Y122319
X268820Y132162
X268859Y177595
X268859Y187438
X268859Y197280
X268859Y207123
X268859Y247949
X268859Y257792
X268859Y267634
X268859Y277477
X268859Y287319
X268859Y297162
T04
X175434Y29189
X165434Y29189
X133229Y29189
X123229Y29189
T05
X118839Y57182
X179824Y57182
T06
X13111Y13934
X13111Y159603
X13111Y305272
X304450Y305272
X304450Y159603
X304450Y13934
T07
X171831Y45174
X126831Y45174
M30
