G75*
%MOIN*%
%OFA0B0*%
%FSLAX25Y25*%
%IPPOS*%
%LPD*%
%AMOC8*
5,1,8,0,0,1.08239X$1,22.5*
%
%ADD10C,0.12611*%
%ADD11C,0.06737*%
%ADD12C,0.10072*%
%ADD13C,0.13595*%
%ADD14C,0.06824*%
%ADD15C,0.06304*%
%ADD16C,0.03778*%
D10*
X0013111Y0013934D03*
X0013111Y0159603D03*
X0013111Y0305272D03*
X0304450Y0305272D03*
X0304450Y0159603D03*
X0304450Y0013934D03*
D11*
X0268859Y0037713D03*
X0268859Y0047556D03*
X0268859Y0057398D03*
X0268859Y0067241D03*
X0268859Y0077083D03*
X0268820Y0102634D03*
X0268820Y0112477D03*
X0268820Y0122319D03*
X0268820Y0132162D03*
X0268859Y0177595D03*
X0268859Y0187438D03*
X0268859Y0197280D03*
X0268859Y0207123D03*
X0268859Y0247949D03*
X0268859Y0257792D03*
X0268859Y0267634D03*
X0268859Y0277477D03*
X0268859Y0287319D03*
X0268859Y0297162D03*
X0238859Y0077083D03*
X0238859Y0067241D03*
X0238859Y0057398D03*
X0238859Y0047556D03*
X0238859Y0037713D03*
X0091162Y0017123D03*
X0081320Y0017123D03*
X0053780Y0017123D03*
X0043938Y0017123D03*
D12*
X0118839Y0057182D03*
X0179824Y0057182D03*
D13*
X0171831Y0045174D03*
X0126831Y0045174D03*
D14*
X0123229Y0029189D03*
X0133229Y0029189D03*
X0165434Y0029189D03*
X0175434Y0029189D03*
D15*
X0161851Y0070174D03*
X0151851Y0070174D03*
X0141851Y0070174D03*
X0131851Y0070174D03*
X0136851Y0080174D03*
X0146851Y0080174D03*
X0156851Y0080174D03*
X0166851Y0080174D03*
D16*
X0168859Y0062123D03*
X0149686Y0049760D03*
X0143269Y0033934D03*
X0155867Y0031886D03*
X0128859Y0062123D03*
X0128505Y0084997D03*
X0128741Y0091078D03*
X0131969Y0099642D03*
X0131851Y0104642D03*
X0137961Y0104682D03*
X0137488Y0099603D03*
X0149646Y0112989D03*
X0141930Y0115115D03*
X0150119Y0099800D03*
X0177442Y0099445D03*
X0196615Y0083225D03*
X0215040Y0057398D03*
X0208308Y0019563D03*
X0274174Y0019878D03*
X0306969Y0040508D03*
X0303032Y0111375D03*
X0266221Y0154367D03*
X0250513Y0163815D03*
X0249804Y0182004D03*
X0248859Y0202123D03*
X0238898Y0216926D03*
X0242757Y0230430D03*
X0253859Y0222123D03*
X0232048Y0248540D03*
X0226143Y0232792D03*
X0210751Y0244734D03*
X0214460Y0251561D03*
X0211930Y0254091D03*
X0198699Y0268382D03*
X0198426Y0274957D03*
X0190158Y0262162D03*
X0178347Y0259170D03*
X0170631Y0268894D03*
X0166694Y0272831D03*
X0160788Y0268894D03*
X0151182Y0272910D03*
X0143422Y0281929D03*
X0127833Y0274839D03*
X0125444Y0264748D03*
X0111576Y0272831D03*
X0092626Y0261808D03*
X0082009Y0275745D03*
X0072835Y0267634D03*
X0077166Y0259524D03*
X0072560Y0258225D03*
X0063426Y0261808D03*
X0059686Y0271375D03*
X0052127Y0266847D03*
X0038111Y0279406D03*
X0041812Y0296020D03*
X0065985Y0307201D03*
X0091891Y0304327D03*
X0142560Y0302162D03*
X0160019Y0298526D03*
X0162690Y0296137D03*
X0178505Y0279734D03*
X0198288Y0298552D03*
X0223032Y0283186D03*
X0232442Y0292556D03*
X0230749Y0309445D03*
X0239489Y0273776D03*
X0236257Y0267166D03*
X0207232Y0227393D03*
X0207232Y0223815D03*
X0207523Y0220238D03*
X0207232Y0216660D03*
X0207232Y0213082D03*
X0207232Y0209504D03*
X0207232Y0205926D03*
X0207314Y0202348D03*
X0189765Y0201886D03*
X0185674Y0219746D03*
X0189252Y0220391D03*
X0192736Y0223875D03*
X0190883Y0229107D03*
X0194154Y0244603D03*
X0173859Y0242243D03*
X0170281Y0242442D03*
X0174331Y0225508D03*
X0164249Y0216977D03*
X0155879Y0207527D03*
X0163963Y0199422D03*
X0159307Y0192088D03*
X0158181Y0188242D03*
X0155546Y0185417D03*
X0152560Y0183225D03*
X0143853Y0182758D03*
X0133466Y0168503D03*
X0135996Y0165973D03*
X0144850Y0165978D03*
X0148544Y0163146D03*
X0141418Y0154485D03*
X0143702Y0149682D03*
X0138977Y0149682D03*
X0134386Y0141948D03*
X0132835Y0138186D03*
X0136413Y0137170D03*
X0140069Y0137448D03*
X0143647Y0137647D03*
X0155158Y0148422D03*
X0157363Y0134957D03*
X0163501Y0128654D03*
X0170628Y0141178D03*
X0190158Y0122201D03*
X0199568Y0148225D03*
X0223347Y0155036D03*
X0225591Y0170272D03*
X0199450Y0175508D03*
X0172520Y0178225D03*
X0166969Y0172713D03*
X0172599Y0166611D03*
X0164568Y0185115D03*
X0121333Y0187144D03*
X0110076Y0189048D03*
X0110142Y0182225D03*
X0117632Y0165603D03*
X0110828Y0146078D03*
X0113820Y0143689D03*
X0117398Y0142489D03*
X0094686Y0129327D03*
X0094135Y0117083D03*
X0109754Y0107133D03*
X0125080Y0111571D03*
X0107402Y0086335D03*
X0093938Y0097201D03*
X0080906Y0070587D03*
X0062717Y0072910D03*
X0047639Y0077280D03*
X0047048Y0055115D03*
X0066497Y0050075D03*
X0068859Y0027123D03*
X0015631Y0044445D03*
X0046457Y0120508D03*
X0045198Y0139327D03*
X0065158Y0139130D03*
X0064174Y0120823D03*
X0082324Y0162162D03*
X0088229Y0162123D03*
X0093662Y0162162D03*
X0075985Y0179642D03*
X0066652Y0191812D03*
X0066851Y0195390D03*
X0066772Y0199918D03*
X0064253Y0209130D03*
X0073281Y0208503D03*
X0056772Y0216768D03*
X0053111Y0216965D03*
X0056271Y0223136D03*
X0054489Y0226414D03*
X0054450Y0231847D03*
X0048820Y0205939D03*
X0015631Y0194052D03*
X0015631Y0131060D03*
X0090198Y0187556D03*
X0103994Y0210733D03*
X0112465Y0235784D03*
X0107687Y0241375D03*
X0120792Y0235145D03*
X0122622Y0242792D03*
X0130602Y0234423D03*
X0149646Y0248067D03*
X0019568Y0268855D03*
X0227954Y0109878D03*
X0303032Y0194052D03*
X0280670Y0228382D03*
X0303032Y0264918D03*
X0280513Y0281296D03*
X0283229Y0309249D03*
M02*
