G75*
%MOIN*%
%OFA0B0*%
%FSLAX25Y25*%
%IPPOS*%
%LPD*%
%AMOC8*
5,1,8,0,0,1.08239X$1,22.5*
%
%ADD10C,0.12611*%
%ADD11C,0.06737*%
%ADD12C,0.10072*%
%ADD13C,0.13595*%
%ADD14C,0.06824*%
%ADD15C,0.06304*%
%ADD16C,0.03778*%
D10*
X0013111Y0023238D03*
X0013111Y0168907D03*
X0013111Y0314577D03*
X0304450Y0314577D03*
X0304450Y0168907D03*
X0304450Y0023238D03*
D11*
X0268859Y0047018D03*
X0268859Y0056860D03*
X0268859Y0066703D03*
X0268859Y0076545D03*
X0268859Y0086388D03*
X0268820Y0111939D03*
X0268820Y0121781D03*
X0268820Y0131624D03*
X0268820Y0141467D03*
X0268859Y0186900D03*
X0268859Y0196742D03*
X0268859Y0206585D03*
X0268859Y0216427D03*
X0268859Y0257254D03*
X0268859Y0267096D03*
X0268859Y0276939D03*
X0268859Y0286781D03*
X0268859Y0296624D03*
X0268859Y0306467D03*
X0238859Y0086388D03*
X0238859Y0076545D03*
X0238859Y0066703D03*
X0238859Y0056860D03*
X0238859Y0047018D03*
X0091162Y0026427D03*
X0081320Y0026427D03*
X0053780Y0026427D03*
X0043938Y0026427D03*
D12*
X0118839Y0055738D03*
X0179824Y0055738D03*
D13*
X0171831Y0043730D03*
X0126831Y0043730D03*
D14*
X0123229Y0027746D03*
X0133229Y0027746D03*
X0165434Y0027746D03*
X0175434Y0027746D03*
D15*
X0161851Y0068730D03*
X0151851Y0068730D03*
X0141851Y0068730D03*
X0131851Y0068730D03*
X0136851Y0078730D03*
X0146851Y0078730D03*
X0156851Y0078730D03*
X0166851Y0078730D03*
D16*
X0149331Y0062963D03*
X0149253Y0042963D03*
X0150001Y0025640D03*
X0208308Y0028868D03*
X0215040Y0066703D03*
X0207506Y0089852D03*
X0194607Y0089813D03*
X0177442Y0108750D03*
X0176576Y0123711D03*
X0163501Y0137959D03*
X0157363Y0144262D03*
X0155158Y0157726D03*
X0143702Y0158986D03*
X0141418Y0163789D03*
X0138977Y0158986D03*
X0134386Y0151253D03*
X0132835Y0147490D03*
X0136413Y0146475D03*
X0140069Y0146752D03*
X0143647Y0146952D03*
X0141930Y0124419D03*
X0149646Y0122293D03*
X0150119Y0109104D03*
X0138289Y0097312D03*
X0128505Y0094301D03*
X0116555Y0108947D03*
X0111024Y0106558D03*
X0102757Y0100382D03*
X0107402Y0095640D03*
X0125080Y0120876D03*
X0117398Y0151793D03*
X0113820Y0152993D03*
X0110828Y0155382D03*
X0117632Y0174907D03*
X0133466Y0177808D03*
X0135996Y0175278D03*
X0144850Y0175283D03*
X0148544Y0172451D03*
X0148932Y0190763D03*
X0152560Y0192530D03*
X0155546Y0194721D03*
X0158181Y0197547D03*
X0159307Y0201393D03*
X0163963Y0208727D03*
X0155879Y0216831D03*
X0163186Y0221675D03*
X0177245Y0216467D03*
X0185674Y0229051D03*
X0189252Y0229695D03*
X0192736Y0233180D03*
X0190883Y0238412D03*
X0194154Y0253907D03*
X0190158Y0271467D03*
X0198699Y0277687D03*
X0198426Y0284262D03*
X0211930Y0263396D03*
X0214460Y0260866D03*
X0210751Y0254038D03*
X0226143Y0242096D03*
X0238898Y0226230D03*
X0242757Y0239734D03*
X0253859Y0231427D03*
X0248859Y0211427D03*
X0249804Y0191309D03*
X0250513Y0173120D03*
X0266221Y0163671D03*
X0278741Y0163199D03*
X0303032Y0203356D03*
X0280670Y0237687D03*
X0303032Y0274222D03*
X0280513Y0290600D03*
X0283229Y0318553D03*
X0239489Y0283081D03*
X0238974Y0276470D03*
X0232048Y0257844D03*
X0207232Y0236698D03*
X0207232Y0233120D03*
X0207523Y0229542D03*
X0207232Y0225964D03*
X0207232Y0222386D03*
X0207232Y0215230D03*
X0207314Y0211652D03*
X0207506Y0208074D03*
X0204685Y0205836D03*
X0196261Y0204065D03*
X0192363Y0196033D03*
X0189765Y0211191D03*
X0173347Y0198986D03*
X0165513Y0191348D03*
X0169922Y0185994D03*
X0179017Y0186033D03*
X0187599Y0171191D03*
X0187993Y0139931D03*
X0223465Y0134537D03*
X0226536Y0159498D03*
X0225591Y0179577D03*
X0174922Y0235522D03*
X0173859Y0251548D03*
X0170589Y0258196D03*
X0178347Y0268474D03*
X0170631Y0278199D03*
X0166694Y0282136D03*
X0160788Y0278199D03*
X0151182Y0282215D03*
X0141403Y0280625D03*
X0143422Y0291234D03*
X0127833Y0284144D03*
X0125444Y0274052D03*
X0111576Y0282136D03*
X0092626Y0271112D03*
X0082009Y0285049D03*
X0077678Y0275522D03*
X0077166Y0268829D03*
X0072560Y0267530D03*
X0069387Y0259605D03*
X0063426Y0271112D03*
X0059686Y0280679D03*
X0052127Y0276152D03*
X0038111Y0288711D03*
X0041812Y0305325D03*
X0066694Y0316506D03*
X0091891Y0313632D03*
X0142560Y0311467D03*
X0160019Y0307831D03*
X0162690Y0305442D03*
X0178505Y0289038D03*
X0198288Y0307857D03*
X0223032Y0292490D03*
X0230788Y0296309D03*
X0232442Y0301860D03*
X0230749Y0318750D03*
X0149646Y0257372D03*
X0126823Y0242429D03*
X0120792Y0244450D03*
X0122622Y0252097D03*
X0112465Y0245089D03*
X0107687Y0250679D03*
X0103994Y0220038D03*
X0110076Y0198353D03*
X0110142Y0191529D03*
X0121333Y0196449D03*
X0093662Y0171467D03*
X0088229Y0171427D03*
X0082324Y0171467D03*
X0075985Y0188947D03*
X0066652Y0201117D03*
X0066851Y0204695D03*
X0066772Y0209222D03*
X0064253Y0218435D03*
X0073281Y0217807D03*
X0071986Y0232676D03*
X0072104Y0238817D03*
X0066317Y0235865D03*
X0056271Y0232440D03*
X0054489Y0235719D03*
X0054450Y0241152D03*
X0053111Y0226270D03*
X0056772Y0226073D03*
X0048820Y0215244D03*
X0015631Y0203356D03*
X0045198Y0148632D03*
X0046457Y0129813D03*
X0064174Y0130128D03*
X0065158Y0148435D03*
X0094686Y0138632D03*
X0094135Y0126388D03*
X0062717Y0082215D03*
X0047639Y0086585D03*
X0047048Y0064419D03*
X0066497Y0059380D03*
X0068859Y0036427D03*
X0080906Y0079892D03*
X0015631Y0053750D03*
X0015631Y0140364D03*
X0090198Y0196860D03*
X0019568Y0278159D03*
X0234213Y0105797D03*
X0274174Y0029183D03*
X0306969Y0049813D03*
X0303032Y0120679D03*
M02*
