%
M48
M72
T01C0.01378
T02C0.03504
T03C0.03937
T04C0.04016
T05C0.06181
T06C0.11811
T07C0.12795
%
T01
X15631Y53750
X47048Y64419
X62717Y82215
X47639Y86585
X66497Y59380
X68859Y36427
X80906Y79892
X102757Y100382
X107402Y95640
X111024Y106558
X116555Y108947
X125080Y120876
X141930Y124419
X149646Y122293
X150119Y109104
X138289Y97312
X128505Y94301
X149331Y62963
X149253Y42963
X150001Y25640
X208308Y28868
X215040Y66703
X207506Y89852
X194607Y89813
X177442Y108750
X176576Y123711
X163501Y137959
X157363Y144262
X155158Y157726
X143702Y158986
X141418Y163789
X138977Y158986
X134386Y151253
X132835Y147490
X136413Y146475
X140069Y146752
X143647Y146952
X148544Y172451
X144850Y175283
X135996Y175278
X133466Y177808
X117632Y174907
X110142Y191529
X110076Y198353
X121333Y196449
X103994Y220038
X112465Y245089
X107687Y250679
X120792Y244450
X126823Y242429
X122622Y252097
X125444Y274052
X127833Y284144
X141403Y280625
X151182Y282215
X160788Y278199
X166694Y282136
X170631Y278199
X178347Y268474
X170589Y258196
X173859Y251548
X174922Y235522
X185674Y229051
X189252Y229695
X192736Y233180
X190883Y238412
X194154Y253907
X190158Y271467
X198699Y277687
X198426Y284262
X211930Y263396
X214460Y260866
X210751Y254038
X226143Y242096
X238898Y226230
X242757Y239734
X253859Y231427
X248859Y211427
X249804Y191309
X250513Y173120
X266221Y163671
X278741Y163199
X303032Y203356
X280670Y237687
X303032Y274222
X280513Y290600
X283229Y318553
X239489Y283081
X238974Y276470
X232048Y257844
X207232Y236698
X207232Y233120
X207523Y229542
X207232Y225964
X207232Y222386
X207232Y215230
X207314Y211652
X207506Y208074
X204685Y205836
X196261Y204065
X192363Y196033
X189765Y211191
X177245Y216467
X163186Y221675
X155879Y216831
X163963Y208727
X159307Y201393
X158181Y197547
X155546Y194721
X152560Y192530
X148932Y190763
X165513Y191348
X169922Y185994
X179017Y186033
X173347Y198986
X187599Y171191
X187993Y139931
X223465Y134537
X226536Y159498
X225591Y179577
X234213Y105797
X274174Y29183
X306969Y49813
X303032Y120679
X178505Y289038
X162690Y305442
X160019Y307831
X142560Y311467
X143422Y291234
X111576Y282136
X92626Y271112
X82009Y285049
X77678Y275522
X77166Y268829
X72560Y267530
X69387Y259605
X63426Y271112
X59686Y280679
X52127Y276152
X38111Y288711
X41812Y305325
X66694Y316506
X91891Y313632
X149646Y257372
X198288Y307857
X223032Y292490
X230788Y296309
X232442Y301860
X230749Y318750
X93662Y171467
X88229Y171427
X82324Y171467
X75985Y188947
X66652Y201117
X66851Y204695
X66772Y209222
X64253Y218435
X73281Y217807
X71986Y232676
X72104Y238817
X66317Y235865
X56271Y232440
X54489Y235719
X54450Y241152
X53111Y226270
X56772Y226073
X48820Y215244
X15631Y203356
X45198Y148632
X46457Y129813
X64174Y130128
X65158Y148435
X94686Y138632
X94135Y126388
X113820Y152993
X117398Y151793
X110828Y155382
X90198Y196860
X19568Y278159
X15631Y140364
T02
X131851Y68730
X141851Y68730
X151851Y68730
X161851Y68730
X156851Y78730
X146851Y78730
X136851Y78730
X166851Y78730
T03
X238859Y76545
X238859Y66703
X238859Y56860
X238859Y47018
X268859Y47018
X268859Y56860
X268859Y66703
X268859Y76545
X268859Y86388
X268820Y111939
X268820Y121781
X268820Y131624
X268820Y141467
X268859Y186900
X268859Y196742
X268859Y206585
X268859Y216427
X268859Y257254
X268859Y267096
X268859Y276939
X268859Y286781
X268859Y296624
X268859Y306467
X238859Y86388
X91162Y26427
X81320Y26427
X53780Y26427
X43938Y26427
T04
X123229Y27746
X133229Y27746
X165434Y27746
X175434Y27746
T05
X179824Y55738
X118839Y55738
T06
X13111Y23238
X13111Y168907
X13111Y314577
X304450Y314577
X304450Y168907
X304450Y23238
T07
X171831Y43730
X126831Y43730
M30
