G75*
%MOIN*%
%OFA0B0*%
%FSLAX25Y25*%
%IPPOS*%
%LPD*%
%AMOC8*
5,1,8,0,0,1.08239X$1,22.5*
%
%ADD10C,0.00000*%
%ADD11C,0.00500*%
D10*
X0001300Y0001532D02*
X0001300Y0316493D01*
X0316182Y0316493D01*
X0316182Y0001532D01*
X0001300Y0001532D01*
X0007205Y0013343D02*
X0007207Y0013496D01*
X0007213Y0013650D01*
X0007223Y0013803D01*
X0007237Y0013955D01*
X0007255Y0014108D01*
X0007277Y0014259D01*
X0007302Y0014410D01*
X0007332Y0014561D01*
X0007366Y0014711D01*
X0007403Y0014859D01*
X0007444Y0015007D01*
X0007489Y0015153D01*
X0007538Y0015299D01*
X0007591Y0015443D01*
X0007647Y0015585D01*
X0007707Y0015726D01*
X0007771Y0015866D01*
X0007838Y0016004D01*
X0007909Y0016140D01*
X0007984Y0016274D01*
X0008061Y0016406D01*
X0008143Y0016536D01*
X0008227Y0016664D01*
X0008315Y0016790D01*
X0008406Y0016913D01*
X0008500Y0017034D01*
X0008598Y0017152D01*
X0008698Y0017268D01*
X0008802Y0017381D01*
X0008908Y0017492D01*
X0009017Y0017600D01*
X0009129Y0017705D01*
X0009243Y0017806D01*
X0009361Y0017905D01*
X0009480Y0018001D01*
X0009602Y0018094D01*
X0009727Y0018183D01*
X0009854Y0018270D01*
X0009983Y0018352D01*
X0010114Y0018432D01*
X0010247Y0018508D01*
X0010382Y0018581D01*
X0010519Y0018650D01*
X0010658Y0018715D01*
X0010798Y0018777D01*
X0010940Y0018835D01*
X0011083Y0018890D01*
X0011228Y0018941D01*
X0011374Y0018988D01*
X0011521Y0019031D01*
X0011669Y0019070D01*
X0011818Y0019106D01*
X0011968Y0019137D01*
X0012119Y0019165D01*
X0012270Y0019189D01*
X0012423Y0019209D01*
X0012575Y0019225D01*
X0012728Y0019237D01*
X0012881Y0019245D01*
X0013034Y0019249D01*
X0013188Y0019249D01*
X0013341Y0019245D01*
X0013494Y0019237D01*
X0013647Y0019225D01*
X0013799Y0019209D01*
X0013952Y0019189D01*
X0014103Y0019165D01*
X0014254Y0019137D01*
X0014404Y0019106D01*
X0014553Y0019070D01*
X0014701Y0019031D01*
X0014848Y0018988D01*
X0014994Y0018941D01*
X0015139Y0018890D01*
X0015282Y0018835D01*
X0015424Y0018777D01*
X0015564Y0018715D01*
X0015703Y0018650D01*
X0015840Y0018581D01*
X0015975Y0018508D01*
X0016108Y0018432D01*
X0016239Y0018352D01*
X0016368Y0018270D01*
X0016495Y0018183D01*
X0016620Y0018094D01*
X0016742Y0018001D01*
X0016861Y0017905D01*
X0016979Y0017806D01*
X0017093Y0017705D01*
X0017205Y0017600D01*
X0017314Y0017492D01*
X0017420Y0017381D01*
X0017524Y0017268D01*
X0017624Y0017152D01*
X0017722Y0017034D01*
X0017816Y0016913D01*
X0017907Y0016790D01*
X0017995Y0016664D01*
X0018079Y0016536D01*
X0018161Y0016406D01*
X0018238Y0016274D01*
X0018313Y0016140D01*
X0018384Y0016004D01*
X0018451Y0015866D01*
X0018515Y0015726D01*
X0018575Y0015585D01*
X0018631Y0015443D01*
X0018684Y0015299D01*
X0018733Y0015153D01*
X0018778Y0015007D01*
X0018819Y0014859D01*
X0018856Y0014711D01*
X0018890Y0014561D01*
X0018920Y0014410D01*
X0018945Y0014259D01*
X0018967Y0014108D01*
X0018985Y0013955D01*
X0018999Y0013803D01*
X0019009Y0013650D01*
X0019015Y0013496D01*
X0019017Y0013343D01*
X0019015Y0013190D01*
X0019009Y0013036D01*
X0018999Y0012883D01*
X0018985Y0012731D01*
X0018967Y0012578D01*
X0018945Y0012427D01*
X0018920Y0012276D01*
X0018890Y0012125D01*
X0018856Y0011975D01*
X0018819Y0011827D01*
X0018778Y0011679D01*
X0018733Y0011533D01*
X0018684Y0011387D01*
X0018631Y0011243D01*
X0018575Y0011101D01*
X0018515Y0010960D01*
X0018451Y0010820D01*
X0018384Y0010682D01*
X0018313Y0010546D01*
X0018238Y0010412D01*
X0018161Y0010280D01*
X0018079Y0010150D01*
X0017995Y0010022D01*
X0017907Y0009896D01*
X0017816Y0009773D01*
X0017722Y0009652D01*
X0017624Y0009534D01*
X0017524Y0009418D01*
X0017420Y0009305D01*
X0017314Y0009194D01*
X0017205Y0009086D01*
X0017093Y0008981D01*
X0016979Y0008880D01*
X0016861Y0008781D01*
X0016742Y0008685D01*
X0016620Y0008592D01*
X0016495Y0008503D01*
X0016368Y0008416D01*
X0016239Y0008334D01*
X0016108Y0008254D01*
X0015975Y0008178D01*
X0015840Y0008105D01*
X0015703Y0008036D01*
X0015564Y0007971D01*
X0015424Y0007909D01*
X0015282Y0007851D01*
X0015139Y0007796D01*
X0014994Y0007745D01*
X0014848Y0007698D01*
X0014701Y0007655D01*
X0014553Y0007616D01*
X0014404Y0007580D01*
X0014254Y0007549D01*
X0014103Y0007521D01*
X0013952Y0007497D01*
X0013799Y0007477D01*
X0013647Y0007461D01*
X0013494Y0007449D01*
X0013341Y0007441D01*
X0013188Y0007437D01*
X0013034Y0007437D01*
X0012881Y0007441D01*
X0012728Y0007449D01*
X0012575Y0007461D01*
X0012423Y0007477D01*
X0012270Y0007497D01*
X0012119Y0007521D01*
X0011968Y0007549D01*
X0011818Y0007580D01*
X0011669Y0007616D01*
X0011521Y0007655D01*
X0011374Y0007698D01*
X0011228Y0007745D01*
X0011083Y0007796D01*
X0010940Y0007851D01*
X0010798Y0007909D01*
X0010658Y0007971D01*
X0010519Y0008036D01*
X0010382Y0008105D01*
X0010247Y0008178D01*
X0010114Y0008254D01*
X0009983Y0008334D01*
X0009854Y0008416D01*
X0009727Y0008503D01*
X0009602Y0008592D01*
X0009480Y0008685D01*
X0009361Y0008781D01*
X0009243Y0008880D01*
X0009129Y0008981D01*
X0009017Y0009086D01*
X0008908Y0009194D01*
X0008802Y0009305D01*
X0008698Y0009418D01*
X0008598Y0009534D01*
X0008500Y0009652D01*
X0008406Y0009773D01*
X0008315Y0009896D01*
X0008227Y0010022D01*
X0008143Y0010150D01*
X0008061Y0010280D01*
X0007984Y0010412D01*
X0007909Y0010546D01*
X0007838Y0010682D01*
X0007771Y0010820D01*
X0007707Y0010960D01*
X0007647Y0011101D01*
X0007591Y0011243D01*
X0007538Y0011387D01*
X0007489Y0011533D01*
X0007444Y0011679D01*
X0007403Y0011827D01*
X0007366Y0011975D01*
X0007332Y0012125D01*
X0007302Y0012276D01*
X0007277Y0012427D01*
X0007255Y0012578D01*
X0007237Y0012731D01*
X0007223Y0012883D01*
X0007213Y0013036D01*
X0007207Y0013190D01*
X0007205Y0013343D01*
X0120453Y0044524D02*
X0120455Y0044684D01*
X0120461Y0044843D01*
X0120471Y0045002D01*
X0120485Y0045161D01*
X0120503Y0045320D01*
X0120524Y0045478D01*
X0120550Y0045635D01*
X0120580Y0045792D01*
X0120613Y0045948D01*
X0120651Y0046103D01*
X0120692Y0046257D01*
X0120737Y0046410D01*
X0120786Y0046562D01*
X0120839Y0046712D01*
X0120895Y0046861D01*
X0120955Y0047009D01*
X0121019Y0047155D01*
X0121087Y0047300D01*
X0121158Y0047443D01*
X0121232Y0047584D01*
X0121310Y0047723D01*
X0121392Y0047860D01*
X0121477Y0047995D01*
X0121565Y0048128D01*
X0121656Y0048259D01*
X0121751Y0048387D01*
X0121849Y0048513D01*
X0121950Y0048637D01*
X0122054Y0048757D01*
X0122161Y0048876D01*
X0122271Y0048991D01*
X0122384Y0049104D01*
X0122499Y0049214D01*
X0122618Y0049321D01*
X0122738Y0049425D01*
X0122862Y0049526D01*
X0122988Y0049624D01*
X0123116Y0049719D01*
X0123247Y0049810D01*
X0123380Y0049898D01*
X0123515Y0049983D01*
X0123652Y0050065D01*
X0123791Y0050143D01*
X0123932Y0050217D01*
X0124075Y0050288D01*
X0124220Y0050356D01*
X0124366Y0050420D01*
X0124514Y0050480D01*
X0124663Y0050536D01*
X0124813Y0050589D01*
X0124965Y0050638D01*
X0125118Y0050683D01*
X0125272Y0050724D01*
X0125427Y0050762D01*
X0125583Y0050795D01*
X0125740Y0050825D01*
X0125897Y0050851D01*
X0126055Y0050872D01*
X0126214Y0050890D01*
X0126373Y0050904D01*
X0126532Y0050914D01*
X0126691Y0050920D01*
X0126851Y0050922D01*
X0127011Y0050920D01*
X0127170Y0050914D01*
X0127329Y0050904D01*
X0127488Y0050890D01*
X0127647Y0050872D01*
X0127805Y0050851D01*
X0127962Y0050825D01*
X0128119Y0050795D01*
X0128275Y0050762D01*
X0128430Y0050724D01*
X0128584Y0050683D01*
X0128737Y0050638D01*
X0128889Y0050589D01*
X0129039Y0050536D01*
X0129188Y0050480D01*
X0129336Y0050420D01*
X0129482Y0050356D01*
X0129627Y0050288D01*
X0129770Y0050217D01*
X0129911Y0050143D01*
X0130050Y0050065D01*
X0130187Y0049983D01*
X0130322Y0049898D01*
X0130455Y0049810D01*
X0130586Y0049719D01*
X0130714Y0049624D01*
X0130840Y0049526D01*
X0130964Y0049425D01*
X0131084Y0049321D01*
X0131203Y0049214D01*
X0131318Y0049104D01*
X0131431Y0048991D01*
X0131541Y0048876D01*
X0131648Y0048757D01*
X0131752Y0048637D01*
X0131853Y0048513D01*
X0131951Y0048387D01*
X0132046Y0048259D01*
X0132137Y0048128D01*
X0132225Y0047995D01*
X0132310Y0047860D01*
X0132392Y0047723D01*
X0132470Y0047584D01*
X0132544Y0047443D01*
X0132615Y0047300D01*
X0132683Y0047155D01*
X0132747Y0047009D01*
X0132807Y0046861D01*
X0132863Y0046712D01*
X0132916Y0046562D01*
X0132965Y0046410D01*
X0133010Y0046257D01*
X0133051Y0046103D01*
X0133089Y0045948D01*
X0133122Y0045792D01*
X0133152Y0045635D01*
X0133178Y0045478D01*
X0133199Y0045320D01*
X0133217Y0045161D01*
X0133231Y0045002D01*
X0133241Y0044843D01*
X0133247Y0044684D01*
X0133249Y0044524D01*
X0133247Y0044364D01*
X0133241Y0044205D01*
X0133231Y0044046D01*
X0133217Y0043887D01*
X0133199Y0043728D01*
X0133178Y0043570D01*
X0133152Y0043413D01*
X0133122Y0043256D01*
X0133089Y0043100D01*
X0133051Y0042945D01*
X0133010Y0042791D01*
X0132965Y0042638D01*
X0132916Y0042486D01*
X0132863Y0042336D01*
X0132807Y0042187D01*
X0132747Y0042039D01*
X0132683Y0041893D01*
X0132615Y0041748D01*
X0132544Y0041605D01*
X0132470Y0041464D01*
X0132392Y0041325D01*
X0132310Y0041188D01*
X0132225Y0041053D01*
X0132137Y0040920D01*
X0132046Y0040789D01*
X0131951Y0040661D01*
X0131853Y0040535D01*
X0131752Y0040411D01*
X0131648Y0040291D01*
X0131541Y0040172D01*
X0131431Y0040057D01*
X0131318Y0039944D01*
X0131203Y0039834D01*
X0131084Y0039727D01*
X0130964Y0039623D01*
X0130840Y0039522D01*
X0130714Y0039424D01*
X0130586Y0039329D01*
X0130455Y0039238D01*
X0130322Y0039150D01*
X0130187Y0039065D01*
X0130050Y0038983D01*
X0129911Y0038905D01*
X0129770Y0038831D01*
X0129627Y0038760D01*
X0129482Y0038692D01*
X0129336Y0038628D01*
X0129188Y0038568D01*
X0129039Y0038512D01*
X0128889Y0038459D01*
X0128737Y0038410D01*
X0128584Y0038365D01*
X0128430Y0038324D01*
X0128275Y0038286D01*
X0128119Y0038253D01*
X0127962Y0038223D01*
X0127805Y0038197D01*
X0127647Y0038176D01*
X0127488Y0038158D01*
X0127329Y0038144D01*
X0127170Y0038134D01*
X0127011Y0038128D01*
X0126851Y0038126D01*
X0126691Y0038128D01*
X0126532Y0038134D01*
X0126373Y0038144D01*
X0126214Y0038158D01*
X0126055Y0038176D01*
X0125897Y0038197D01*
X0125740Y0038223D01*
X0125583Y0038253D01*
X0125427Y0038286D01*
X0125272Y0038324D01*
X0125118Y0038365D01*
X0124965Y0038410D01*
X0124813Y0038459D01*
X0124663Y0038512D01*
X0124514Y0038568D01*
X0124366Y0038628D01*
X0124220Y0038692D01*
X0124075Y0038760D01*
X0123932Y0038831D01*
X0123791Y0038905D01*
X0123652Y0038983D01*
X0123515Y0039065D01*
X0123380Y0039150D01*
X0123247Y0039238D01*
X0123116Y0039329D01*
X0122988Y0039424D01*
X0122862Y0039522D01*
X0122738Y0039623D01*
X0122618Y0039727D01*
X0122499Y0039834D01*
X0122384Y0039944D01*
X0122271Y0040057D01*
X0122161Y0040172D01*
X0122054Y0040291D01*
X0121950Y0040411D01*
X0121849Y0040535D01*
X0121751Y0040661D01*
X0121656Y0040789D01*
X0121565Y0040920D01*
X0121477Y0041053D01*
X0121392Y0041188D01*
X0121310Y0041325D01*
X0121232Y0041464D01*
X0121158Y0041605D01*
X0121087Y0041748D01*
X0121019Y0041893D01*
X0120955Y0042039D01*
X0120895Y0042187D01*
X0120839Y0042336D01*
X0120786Y0042486D01*
X0120737Y0042638D01*
X0120692Y0042791D01*
X0120651Y0042945D01*
X0120613Y0043100D01*
X0120580Y0043256D01*
X0120550Y0043413D01*
X0120524Y0043570D01*
X0120503Y0043728D01*
X0120485Y0043887D01*
X0120471Y0044046D01*
X0120461Y0044205D01*
X0120455Y0044364D01*
X0120453Y0044524D01*
X0165453Y0044524D02*
X0165455Y0044684D01*
X0165461Y0044843D01*
X0165471Y0045002D01*
X0165485Y0045161D01*
X0165503Y0045320D01*
X0165524Y0045478D01*
X0165550Y0045635D01*
X0165580Y0045792D01*
X0165613Y0045948D01*
X0165651Y0046103D01*
X0165692Y0046257D01*
X0165737Y0046410D01*
X0165786Y0046562D01*
X0165839Y0046712D01*
X0165895Y0046861D01*
X0165955Y0047009D01*
X0166019Y0047155D01*
X0166087Y0047300D01*
X0166158Y0047443D01*
X0166232Y0047584D01*
X0166310Y0047723D01*
X0166392Y0047860D01*
X0166477Y0047995D01*
X0166565Y0048128D01*
X0166656Y0048259D01*
X0166751Y0048387D01*
X0166849Y0048513D01*
X0166950Y0048637D01*
X0167054Y0048757D01*
X0167161Y0048876D01*
X0167271Y0048991D01*
X0167384Y0049104D01*
X0167499Y0049214D01*
X0167618Y0049321D01*
X0167738Y0049425D01*
X0167862Y0049526D01*
X0167988Y0049624D01*
X0168116Y0049719D01*
X0168247Y0049810D01*
X0168380Y0049898D01*
X0168515Y0049983D01*
X0168652Y0050065D01*
X0168791Y0050143D01*
X0168932Y0050217D01*
X0169075Y0050288D01*
X0169220Y0050356D01*
X0169366Y0050420D01*
X0169514Y0050480D01*
X0169663Y0050536D01*
X0169813Y0050589D01*
X0169965Y0050638D01*
X0170118Y0050683D01*
X0170272Y0050724D01*
X0170427Y0050762D01*
X0170583Y0050795D01*
X0170740Y0050825D01*
X0170897Y0050851D01*
X0171055Y0050872D01*
X0171214Y0050890D01*
X0171373Y0050904D01*
X0171532Y0050914D01*
X0171691Y0050920D01*
X0171851Y0050922D01*
X0172011Y0050920D01*
X0172170Y0050914D01*
X0172329Y0050904D01*
X0172488Y0050890D01*
X0172647Y0050872D01*
X0172805Y0050851D01*
X0172962Y0050825D01*
X0173119Y0050795D01*
X0173275Y0050762D01*
X0173430Y0050724D01*
X0173584Y0050683D01*
X0173737Y0050638D01*
X0173889Y0050589D01*
X0174039Y0050536D01*
X0174188Y0050480D01*
X0174336Y0050420D01*
X0174482Y0050356D01*
X0174627Y0050288D01*
X0174770Y0050217D01*
X0174911Y0050143D01*
X0175050Y0050065D01*
X0175187Y0049983D01*
X0175322Y0049898D01*
X0175455Y0049810D01*
X0175586Y0049719D01*
X0175714Y0049624D01*
X0175840Y0049526D01*
X0175964Y0049425D01*
X0176084Y0049321D01*
X0176203Y0049214D01*
X0176318Y0049104D01*
X0176431Y0048991D01*
X0176541Y0048876D01*
X0176648Y0048757D01*
X0176752Y0048637D01*
X0176853Y0048513D01*
X0176951Y0048387D01*
X0177046Y0048259D01*
X0177137Y0048128D01*
X0177225Y0047995D01*
X0177310Y0047860D01*
X0177392Y0047723D01*
X0177470Y0047584D01*
X0177544Y0047443D01*
X0177615Y0047300D01*
X0177683Y0047155D01*
X0177747Y0047009D01*
X0177807Y0046861D01*
X0177863Y0046712D01*
X0177916Y0046562D01*
X0177965Y0046410D01*
X0178010Y0046257D01*
X0178051Y0046103D01*
X0178089Y0045948D01*
X0178122Y0045792D01*
X0178152Y0045635D01*
X0178178Y0045478D01*
X0178199Y0045320D01*
X0178217Y0045161D01*
X0178231Y0045002D01*
X0178241Y0044843D01*
X0178247Y0044684D01*
X0178249Y0044524D01*
X0178247Y0044364D01*
X0178241Y0044205D01*
X0178231Y0044046D01*
X0178217Y0043887D01*
X0178199Y0043728D01*
X0178178Y0043570D01*
X0178152Y0043413D01*
X0178122Y0043256D01*
X0178089Y0043100D01*
X0178051Y0042945D01*
X0178010Y0042791D01*
X0177965Y0042638D01*
X0177916Y0042486D01*
X0177863Y0042336D01*
X0177807Y0042187D01*
X0177747Y0042039D01*
X0177683Y0041893D01*
X0177615Y0041748D01*
X0177544Y0041605D01*
X0177470Y0041464D01*
X0177392Y0041325D01*
X0177310Y0041188D01*
X0177225Y0041053D01*
X0177137Y0040920D01*
X0177046Y0040789D01*
X0176951Y0040661D01*
X0176853Y0040535D01*
X0176752Y0040411D01*
X0176648Y0040291D01*
X0176541Y0040172D01*
X0176431Y0040057D01*
X0176318Y0039944D01*
X0176203Y0039834D01*
X0176084Y0039727D01*
X0175964Y0039623D01*
X0175840Y0039522D01*
X0175714Y0039424D01*
X0175586Y0039329D01*
X0175455Y0039238D01*
X0175322Y0039150D01*
X0175187Y0039065D01*
X0175050Y0038983D01*
X0174911Y0038905D01*
X0174770Y0038831D01*
X0174627Y0038760D01*
X0174482Y0038692D01*
X0174336Y0038628D01*
X0174188Y0038568D01*
X0174039Y0038512D01*
X0173889Y0038459D01*
X0173737Y0038410D01*
X0173584Y0038365D01*
X0173430Y0038324D01*
X0173275Y0038286D01*
X0173119Y0038253D01*
X0172962Y0038223D01*
X0172805Y0038197D01*
X0172647Y0038176D01*
X0172488Y0038158D01*
X0172329Y0038144D01*
X0172170Y0038134D01*
X0172011Y0038128D01*
X0171851Y0038126D01*
X0171691Y0038128D01*
X0171532Y0038134D01*
X0171373Y0038144D01*
X0171214Y0038158D01*
X0171055Y0038176D01*
X0170897Y0038197D01*
X0170740Y0038223D01*
X0170583Y0038253D01*
X0170427Y0038286D01*
X0170272Y0038324D01*
X0170118Y0038365D01*
X0169965Y0038410D01*
X0169813Y0038459D01*
X0169663Y0038512D01*
X0169514Y0038568D01*
X0169366Y0038628D01*
X0169220Y0038692D01*
X0169075Y0038760D01*
X0168932Y0038831D01*
X0168791Y0038905D01*
X0168652Y0038983D01*
X0168515Y0039065D01*
X0168380Y0039150D01*
X0168247Y0039238D01*
X0168116Y0039329D01*
X0167988Y0039424D01*
X0167862Y0039522D01*
X0167738Y0039623D01*
X0167618Y0039727D01*
X0167499Y0039834D01*
X0167384Y0039944D01*
X0167271Y0040057D01*
X0167161Y0040172D01*
X0167054Y0040291D01*
X0166950Y0040411D01*
X0166849Y0040535D01*
X0166751Y0040661D01*
X0166656Y0040789D01*
X0166565Y0040920D01*
X0166477Y0041053D01*
X0166392Y0041188D01*
X0166310Y0041325D01*
X0166232Y0041464D01*
X0166158Y0041605D01*
X0166087Y0041748D01*
X0166019Y0041893D01*
X0165955Y0042039D01*
X0165895Y0042187D01*
X0165839Y0042336D01*
X0165786Y0042486D01*
X0165737Y0042638D01*
X0165692Y0042791D01*
X0165651Y0042945D01*
X0165613Y0043100D01*
X0165580Y0043256D01*
X0165550Y0043413D01*
X0165524Y0043570D01*
X0165503Y0043728D01*
X0165485Y0043887D01*
X0165471Y0044046D01*
X0165461Y0044205D01*
X0165455Y0044364D01*
X0165453Y0044524D01*
X0298544Y0013343D02*
X0298546Y0013496D01*
X0298552Y0013650D01*
X0298562Y0013803D01*
X0298576Y0013955D01*
X0298594Y0014108D01*
X0298616Y0014259D01*
X0298641Y0014410D01*
X0298671Y0014561D01*
X0298705Y0014711D01*
X0298742Y0014859D01*
X0298783Y0015007D01*
X0298828Y0015153D01*
X0298877Y0015299D01*
X0298930Y0015443D01*
X0298986Y0015585D01*
X0299046Y0015726D01*
X0299110Y0015866D01*
X0299177Y0016004D01*
X0299248Y0016140D01*
X0299323Y0016274D01*
X0299400Y0016406D01*
X0299482Y0016536D01*
X0299566Y0016664D01*
X0299654Y0016790D01*
X0299745Y0016913D01*
X0299839Y0017034D01*
X0299937Y0017152D01*
X0300037Y0017268D01*
X0300141Y0017381D01*
X0300247Y0017492D01*
X0300356Y0017600D01*
X0300468Y0017705D01*
X0300582Y0017806D01*
X0300700Y0017905D01*
X0300819Y0018001D01*
X0300941Y0018094D01*
X0301066Y0018183D01*
X0301193Y0018270D01*
X0301322Y0018352D01*
X0301453Y0018432D01*
X0301586Y0018508D01*
X0301721Y0018581D01*
X0301858Y0018650D01*
X0301997Y0018715D01*
X0302137Y0018777D01*
X0302279Y0018835D01*
X0302422Y0018890D01*
X0302567Y0018941D01*
X0302713Y0018988D01*
X0302860Y0019031D01*
X0303008Y0019070D01*
X0303157Y0019106D01*
X0303307Y0019137D01*
X0303458Y0019165D01*
X0303609Y0019189D01*
X0303762Y0019209D01*
X0303914Y0019225D01*
X0304067Y0019237D01*
X0304220Y0019245D01*
X0304373Y0019249D01*
X0304527Y0019249D01*
X0304680Y0019245D01*
X0304833Y0019237D01*
X0304986Y0019225D01*
X0305138Y0019209D01*
X0305291Y0019189D01*
X0305442Y0019165D01*
X0305593Y0019137D01*
X0305743Y0019106D01*
X0305892Y0019070D01*
X0306040Y0019031D01*
X0306187Y0018988D01*
X0306333Y0018941D01*
X0306478Y0018890D01*
X0306621Y0018835D01*
X0306763Y0018777D01*
X0306903Y0018715D01*
X0307042Y0018650D01*
X0307179Y0018581D01*
X0307314Y0018508D01*
X0307447Y0018432D01*
X0307578Y0018352D01*
X0307707Y0018270D01*
X0307834Y0018183D01*
X0307959Y0018094D01*
X0308081Y0018001D01*
X0308200Y0017905D01*
X0308318Y0017806D01*
X0308432Y0017705D01*
X0308544Y0017600D01*
X0308653Y0017492D01*
X0308759Y0017381D01*
X0308863Y0017268D01*
X0308963Y0017152D01*
X0309061Y0017034D01*
X0309155Y0016913D01*
X0309246Y0016790D01*
X0309334Y0016664D01*
X0309418Y0016536D01*
X0309500Y0016406D01*
X0309577Y0016274D01*
X0309652Y0016140D01*
X0309723Y0016004D01*
X0309790Y0015866D01*
X0309854Y0015726D01*
X0309914Y0015585D01*
X0309970Y0015443D01*
X0310023Y0015299D01*
X0310072Y0015153D01*
X0310117Y0015007D01*
X0310158Y0014859D01*
X0310195Y0014711D01*
X0310229Y0014561D01*
X0310259Y0014410D01*
X0310284Y0014259D01*
X0310306Y0014108D01*
X0310324Y0013955D01*
X0310338Y0013803D01*
X0310348Y0013650D01*
X0310354Y0013496D01*
X0310356Y0013343D01*
X0310354Y0013190D01*
X0310348Y0013036D01*
X0310338Y0012883D01*
X0310324Y0012731D01*
X0310306Y0012578D01*
X0310284Y0012427D01*
X0310259Y0012276D01*
X0310229Y0012125D01*
X0310195Y0011975D01*
X0310158Y0011827D01*
X0310117Y0011679D01*
X0310072Y0011533D01*
X0310023Y0011387D01*
X0309970Y0011243D01*
X0309914Y0011101D01*
X0309854Y0010960D01*
X0309790Y0010820D01*
X0309723Y0010682D01*
X0309652Y0010546D01*
X0309577Y0010412D01*
X0309500Y0010280D01*
X0309418Y0010150D01*
X0309334Y0010022D01*
X0309246Y0009896D01*
X0309155Y0009773D01*
X0309061Y0009652D01*
X0308963Y0009534D01*
X0308863Y0009418D01*
X0308759Y0009305D01*
X0308653Y0009194D01*
X0308544Y0009086D01*
X0308432Y0008981D01*
X0308318Y0008880D01*
X0308200Y0008781D01*
X0308081Y0008685D01*
X0307959Y0008592D01*
X0307834Y0008503D01*
X0307707Y0008416D01*
X0307578Y0008334D01*
X0307447Y0008254D01*
X0307314Y0008178D01*
X0307179Y0008105D01*
X0307042Y0008036D01*
X0306903Y0007971D01*
X0306763Y0007909D01*
X0306621Y0007851D01*
X0306478Y0007796D01*
X0306333Y0007745D01*
X0306187Y0007698D01*
X0306040Y0007655D01*
X0305892Y0007616D01*
X0305743Y0007580D01*
X0305593Y0007549D01*
X0305442Y0007521D01*
X0305291Y0007497D01*
X0305138Y0007477D01*
X0304986Y0007461D01*
X0304833Y0007449D01*
X0304680Y0007441D01*
X0304527Y0007437D01*
X0304373Y0007437D01*
X0304220Y0007441D01*
X0304067Y0007449D01*
X0303914Y0007461D01*
X0303762Y0007477D01*
X0303609Y0007497D01*
X0303458Y0007521D01*
X0303307Y0007549D01*
X0303157Y0007580D01*
X0303008Y0007616D01*
X0302860Y0007655D01*
X0302713Y0007698D01*
X0302567Y0007745D01*
X0302422Y0007796D01*
X0302279Y0007851D01*
X0302137Y0007909D01*
X0301997Y0007971D01*
X0301858Y0008036D01*
X0301721Y0008105D01*
X0301586Y0008178D01*
X0301453Y0008254D01*
X0301322Y0008334D01*
X0301193Y0008416D01*
X0301066Y0008503D01*
X0300941Y0008592D01*
X0300819Y0008685D01*
X0300700Y0008781D01*
X0300582Y0008880D01*
X0300468Y0008981D01*
X0300356Y0009086D01*
X0300247Y0009194D01*
X0300141Y0009305D01*
X0300037Y0009418D01*
X0299937Y0009534D01*
X0299839Y0009652D01*
X0299745Y0009773D01*
X0299654Y0009896D01*
X0299566Y0010022D01*
X0299482Y0010150D01*
X0299400Y0010280D01*
X0299323Y0010412D01*
X0299248Y0010546D01*
X0299177Y0010682D01*
X0299110Y0010820D01*
X0299046Y0010960D01*
X0298986Y0011101D01*
X0298930Y0011243D01*
X0298877Y0011387D01*
X0298828Y0011533D01*
X0298783Y0011679D01*
X0298742Y0011827D01*
X0298705Y0011975D01*
X0298671Y0012125D01*
X0298641Y0012276D01*
X0298616Y0012427D01*
X0298594Y0012578D01*
X0298576Y0012731D01*
X0298562Y0012883D01*
X0298552Y0013036D01*
X0298546Y0013190D01*
X0298544Y0013343D01*
X0298544Y0159012D02*
X0298546Y0159165D01*
X0298552Y0159319D01*
X0298562Y0159472D01*
X0298576Y0159624D01*
X0298594Y0159777D01*
X0298616Y0159928D01*
X0298641Y0160079D01*
X0298671Y0160230D01*
X0298705Y0160380D01*
X0298742Y0160528D01*
X0298783Y0160676D01*
X0298828Y0160822D01*
X0298877Y0160968D01*
X0298930Y0161112D01*
X0298986Y0161254D01*
X0299046Y0161395D01*
X0299110Y0161535D01*
X0299177Y0161673D01*
X0299248Y0161809D01*
X0299323Y0161943D01*
X0299400Y0162075D01*
X0299482Y0162205D01*
X0299566Y0162333D01*
X0299654Y0162459D01*
X0299745Y0162582D01*
X0299839Y0162703D01*
X0299937Y0162821D01*
X0300037Y0162937D01*
X0300141Y0163050D01*
X0300247Y0163161D01*
X0300356Y0163269D01*
X0300468Y0163374D01*
X0300582Y0163475D01*
X0300700Y0163574D01*
X0300819Y0163670D01*
X0300941Y0163763D01*
X0301066Y0163852D01*
X0301193Y0163939D01*
X0301322Y0164021D01*
X0301453Y0164101D01*
X0301586Y0164177D01*
X0301721Y0164250D01*
X0301858Y0164319D01*
X0301997Y0164384D01*
X0302137Y0164446D01*
X0302279Y0164504D01*
X0302422Y0164559D01*
X0302567Y0164610D01*
X0302713Y0164657D01*
X0302860Y0164700D01*
X0303008Y0164739D01*
X0303157Y0164775D01*
X0303307Y0164806D01*
X0303458Y0164834D01*
X0303609Y0164858D01*
X0303762Y0164878D01*
X0303914Y0164894D01*
X0304067Y0164906D01*
X0304220Y0164914D01*
X0304373Y0164918D01*
X0304527Y0164918D01*
X0304680Y0164914D01*
X0304833Y0164906D01*
X0304986Y0164894D01*
X0305138Y0164878D01*
X0305291Y0164858D01*
X0305442Y0164834D01*
X0305593Y0164806D01*
X0305743Y0164775D01*
X0305892Y0164739D01*
X0306040Y0164700D01*
X0306187Y0164657D01*
X0306333Y0164610D01*
X0306478Y0164559D01*
X0306621Y0164504D01*
X0306763Y0164446D01*
X0306903Y0164384D01*
X0307042Y0164319D01*
X0307179Y0164250D01*
X0307314Y0164177D01*
X0307447Y0164101D01*
X0307578Y0164021D01*
X0307707Y0163939D01*
X0307834Y0163852D01*
X0307959Y0163763D01*
X0308081Y0163670D01*
X0308200Y0163574D01*
X0308318Y0163475D01*
X0308432Y0163374D01*
X0308544Y0163269D01*
X0308653Y0163161D01*
X0308759Y0163050D01*
X0308863Y0162937D01*
X0308963Y0162821D01*
X0309061Y0162703D01*
X0309155Y0162582D01*
X0309246Y0162459D01*
X0309334Y0162333D01*
X0309418Y0162205D01*
X0309500Y0162075D01*
X0309577Y0161943D01*
X0309652Y0161809D01*
X0309723Y0161673D01*
X0309790Y0161535D01*
X0309854Y0161395D01*
X0309914Y0161254D01*
X0309970Y0161112D01*
X0310023Y0160968D01*
X0310072Y0160822D01*
X0310117Y0160676D01*
X0310158Y0160528D01*
X0310195Y0160380D01*
X0310229Y0160230D01*
X0310259Y0160079D01*
X0310284Y0159928D01*
X0310306Y0159777D01*
X0310324Y0159624D01*
X0310338Y0159472D01*
X0310348Y0159319D01*
X0310354Y0159165D01*
X0310356Y0159012D01*
X0310354Y0158859D01*
X0310348Y0158705D01*
X0310338Y0158552D01*
X0310324Y0158400D01*
X0310306Y0158247D01*
X0310284Y0158096D01*
X0310259Y0157945D01*
X0310229Y0157794D01*
X0310195Y0157644D01*
X0310158Y0157496D01*
X0310117Y0157348D01*
X0310072Y0157202D01*
X0310023Y0157056D01*
X0309970Y0156912D01*
X0309914Y0156770D01*
X0309854Y0156629D01*
X0309790Y0156489D01*
X0309723Y0156351D01*
X0309652Y0156215D01*
X0309577Y0156081D01*
X0309500Y0155949D01*
X0309418Y0155819D01*
X0309334Y0155691D01*
X0309246Y0155565D01*
X0309155Y0155442D01*
X0309061Y0155321D01*
X0308963Y0155203D01*
X0308863Y0155087D01*
X0308759Y0154974D01*
X0308653Y0154863D01*
X0308544Y0154755D01*
X0308432Y0154650D01*
X0308318Y0154549D01*
X0308200Y0154450D01*
X0308081Y0154354D01*
X0307959Y0154261D01*
X0307834Y0154172D01*
X0307707Y0154085D01*
X0307578Y0154003D01*
X0307447Y0153923D01*
X0307314Y0153847D01*
X0307179Y0153774D01*
X0307042Y0153705D01*
X0306903Y0153640D01*
X0306763Y0153578D01*
X0306621Y0153520D01*
X0306478Y0153465D01*
X0306333Y0153414D01*
X0306187Y0153367D01*
X0306040Y0153324D01*
X0305892Y0153285D01*
X0305743Y0153249D01*
X0305593Y0153218D01*
X0305442Y0153190D01*
X0305291Y0153166D01*
X0305138Y0153146D01*
X0304986Y0153130D01*
X0304833Y0153118D01*
X0304680Y0153110D01*
X0304527Y0153106D01*
X0304373Y0153106D01*
X0304220Y0153110D01*
X0304067Y0153118D01*
X0303914Y0153130D01*
X0303762Y0153146D01*
X0303609Y0153166D01*
X0303458Y0153190D01*
X0303307Y0153218D01*
X0303157Y0153249D01*
X0303008Y0153285D01*
X0302860Y0153324D01*
X0302713Y0153367D01*
X0302567Y0153414D01*
X0302422Y0153465D01*
X0302279Y0153520D01*
X0302137Y0153578D01*
X0301997Y0153640D01*
X0301858Y0153705D01*
X0301721Y0153774D01*
X0301586Y0153847D01*
X0301453Y0153923D01*
X0301322Y0154003D01*
X0301193Y0154085D01*
X0301066Y0154172D01*
X0300941Y0154261D01*
X0300819Y0154354D01*
X0300700Y0154450D01*
X0300582Y0154549D01*
X0300468Y0154650D01*
X0300356Y0154755D01*
X0300247Y0154863D01*
X0300141Y0154974D01*
X0300037Y0155087D01*
X0299937Y0155203D01*
X0299839Y0155321D01*
X0299745Y0155442D01*
X0299654Y0155565D01*
X0299566Y0155691D01*
X0299482Y0155819D01*
X0299400Y0155949D01*
X0299323Y0156081D01*
X0299248Y0156215D01*
X0299177Y0156351D01*
X0299110Y0156489D01*
X0299046Y0156629D01*
X0298986Y0156770D01*
X0298930Y0156912D01*
X0298877Y0157056D01*
X0298828Y0157202D01*
X0298783Y0157348D01*
X0298742Y0157496D01*
X0298705Y0157644D01*
X0298671Y0157794D01*
X0298641Y0157945D01*
X0298616Y0158096D01*
X0298594Y0158247D01*
X0298576Y0158400D01*
X0298562Y0158552D01*
X0298552Y0158705D01*
X0298546Y0158859D01*
X0298544Y0159012D01*
X0298544Y0304682D02*
X0298546Y0304835D01*
X0298552Y0304989D01*
X0298562Y0305142D01*
X0298576Y0305294D01*
X0298594Y0305447D01*
X0298616Y0305598D01*
X0298641Y0305749D01*
X0298671Y0305900D01*
X0298705Y0306050D01*
X0298742Y0306198D01*
X0298783Y0306346D01*
X0298828Y0306492D01*
X0298877Y0306638D01*
X0298930Y0306782D01*
X0298986Y0306924D01*
X0299046Y0307065D01*
X0299110Y0307205D01*
X0299177Y0307343D01*
X0299248Y0307479D01*
X0299323Y0307613D01*
X0299400Y0307745D01*
X0299482Y0307875D01*
X0299566Y0308003D01*
X0299654Y0308129D01*
X0299745Y0308252D01*
X0299839Y0308373D01*
X0299937Y0308491D01*
X0300037Y0308607D01*
X0300141Y0308720D01*
X0300247Y0308831D01*
X0300356Y0308939D01*
X0300468Y0309044D01*
X0300582Y0309145D01*
X0300700Y0309244D01*
X0300819Y0309340D01*
X0300941Y0309433D01*
X0301066Y0309522D01*
X0301193Y0309609D01*
X0301322Y0309691D01*
X0301453Y0309771D01*
X0301586Y0309847D01*
X0301721Y0309920D01*
X0301858Y0309989D01*
X0301997Y0310054D01*
X0302137Y0310116D01*
X0302279Y0310174D01*
X0302422Y0310229D01*
X0302567Y0310280D01*
X0302713Y0310327D01*
X0302860Y0310370D01*
X0303008Y0310409D01*
X0303157Y0310445D01*
X0303307Y0310476D01*
X0303458Y0310504D01*
X0303609Y0310528D01*
X0303762Y0310548D01*
X0303914Y0310564D01*
X0304067Y0310576D01*
X0304220Y0310584D01*
X0304373Y0310588D01*
X0304527Y0310588D01*
X0304680Y0310584D01*
X0304833Y0310576D01*
X0304986Y0310564D01*
X0305138Y0310548D01*
X0305291Y0310528D01*
X0305442Y0310504D01*
X0305593Y0310476D01*
X0305743Y0310445D01*
X0305892Y0310409D01*
X0306040Y0310370D01*
X0306187Y0310327D01*
X0306333Y0310280D01*
X0306478Y0310229D01*
X0306621Y0310174D01*
X0306763Y0310116D01*
X0306903Y0310054D01*
X0307042Y0309989D01*
X0307179Y0309920D01*
X0307314Y0309847D01*
X0307447Y0309771D01*
X0307578Y0309691D01*
X0307707Y0309609D01*
X0307834Y0309522D01*
X0307959Y0309433D01*
X0308081Y0309340D01*
X0308200Y0309244D01*
X0308318Y0309145D01*
X0308432Y0309044D01*
X0308544Y0308939D01*
X0308653Y0308831D01*
X0308759Y0308720D01*
X0308863Y0308607D01*
X0308963Y0308491D01*
X0309061Y0308373D01*
X0309155Y0308252D01*
X0309246Y0308129D01*
X0309334Y0308003D01*
X0309418Y0307875D01*
X0309500Y0307745D01*
X0309577Y0307613D01*
X0309652Y0307479D01*
X0309723Y0307343D01*
X0309790Y0307205D01*
X0309854Y0307065D01*
X0309914Y0306924D01*
X0309970Y0306782D01*
X0310023Y0306638D01*
X0310072Y0306492D01*
X0310117Y0306346D01*
X0310158Y0306198D01*
X0310195Y0306050D01*
X0310229Y0305900D01*
X0310259Y0305749D01*
X0310284Y0305598D01*
X0310306Y0305447D01*
X0310324Y0305294D01*
X0310338Y0305142D01*
X0310348Y0304989D01*
X0310354Y0304835D01*
X0310356Y0304682D01*
X0310354Y0304529D01*
X0310348Y0304375D01*
X0310338Y0304222D01*
X0310324Y0304070D01*
X0310306Y0303917D01*
X0310284Y0303766D01*
X0310259Y0303615D01*
X0310229Y0303464D01*
X0310195Y0303314D01*
X0310158Y0303166D01*
X0310117Y0303018D01*
X0310072Y0302872D01*
X0310023Y0302726D01*
X0309970Y0302582D01*
X0309914Y0302440D01*
X0309854Y0302299D01*
X0309790Y0302159D01*
X0309723Y0302021D01*
X0309652Y0301885D01*
X0309577Y0301751D01*
X0309500Y0301619D01*
X0309418Y0301489D01*
X0309334Y0301361D01*
X0309246Y0301235D01*
X0309155Y0301112D01*
X0309061Y0300991D01*
X0308963Y0300873D01*
X0308863Y0300757D01*
X0308759Y0300644D01*
X0308653Y0300533D01*
X0308544Y0300425D01*
X0308432Y0300320D01*
X0308318Y0300219D01*
X0308200Y0300120D01*
X0308081Y0300024D01*
X0307959Y0299931D01*
X0307834Y0299842D01*
X0307707Y0299755D01*
X0307578Y0299673D01*
X0307447Y0299593D01*
X0307314Y0299517D01*
X0307179Y0299444D01*
X0307042Y0299375D01*
X0306903Y0299310D01*
X0306763Y0299248D01*
X0306621Y0299190D01*
X0306478Y0299135D01*
X0306333Y0299084D01*
X0306187Y0299037D01*
X0306040Y0298994D01*
X0305892Y0298955D01*
X0305743Y0298919D01*
X0305593Y0298888D01*
X0305442Y0298860D01*
X0305291Y0298836D01*
X0305138Y0298816D01*
X0304986Y0298800D01*
X0304833Y0298788D01*
X0304680Y0298780D01*
X0304527Y0298776D01*
X0304373Y0298776D01*
X0304220Y0298780D01*
X0304067Y0298788D01*
X0303914Y0298800D01*
X0303762Y0298816D01*
X0303609Y0298836D01*
X0303458Y0298860D01*
X0303307Y0298888D01*
X0303157Y0298919D01*
X0303008Y0298955D01*
X0302860Y0298994D01*
X0302713Y0299037D01*
X0302567Y0299084D01*
X0302422Y0299135D01*
X0302279Y0299190D01*
X0302137Y0299248D01*
X0301997Y0299310D01*
X0301858Y0299375D01*
X0301721Y0299444D01*
X0301586Y0299517D01*
X0301453Y0299593D01*
X0301322Y0299673D01*
X0301193Y0299755D01*
X0301066Y0299842D01*
X0300941Y0299931D01*
X0300819Y0300024D01*
X0300700Y0300120D01*
X0300582Y0300219D01*
X0300468Y0300320D01*
X0300356Y0300425D01*
X0300247Y0300533D01*
X0300141Y0300644D01*
X0300037Y0300757D01*
X0299937Y0300873D01*
X0299839Y0300991D01*
X0299745Y0301112D01*
X0299654Y0301235D01*
X0299566Y0301361D01*
X0299482Y0301489D01*
X0299400Y0301619D01*
X0299323Y0301751D01*
X0299248Y0301885D01*
X0299177Y0302021D01*
X0299110Y0302159D01*
X0299046Y0302299D01*
X0298986Y0302440D01*
X0298930Y0302582D01*
X0298877Y0302726D01*
X0298828Y0302872D01*
X0298783Y0303018D01*
X0298742Y0303166D01*
X0298705Y0303314D01*
X0298671Y0303464D01*
X0298641Y0303615D01*
X0298616Y0303766D01*
X0298594Y0303917D01*
X0298576Y0304070D01*
X0298562Y0304222D01*
X0298552Y0304375D01*
X0298546Y0304529D01*
X0298544Y0304682D01*
X0007205Y0304682D02*
X0007207Y0304835D01*
X0007213Y0304989D01*
X0007223Y0305142D01*
X0007237Y0305294D01*
X0007255Y0305447D01*
X0007277Y0305598D01*
X0007302Y0305749D01*
X0007332Y0305900D01*
X0007366Y0306050D01*
X0007403Y0306198D01*
X0007444Y0306346D01*
X0007489Y0306492D01*
X0007538Y0306638D01*
X0007591Y0306782D01*
X0007647Y0306924D01*
X0007707Y0307065D01*
X0007771Y0307205D01*
X0007838Y0307343D01*
X0007909Y0307479D01*
X0007984Y0307613D01*
X0008061Y0307745D01*
X0008143Y0307875D01*
X0008227Y0308003D01*
X0008315Y0308129D01*
X0008406Y0308252D01*
X0008500Y0308373D01*
X0008598Y0308491D01*
X0008698Y0308607D01*
X0008802Y0308720D01*
X0008908Y0308831D01*
X0009017Y0308939D01*
X0009129Y0309044D01*
X0009243Y0309145D01*
X0009361Y0309244D01*
X0009480Y0309340D01*
X0009602Y0309433D01*
X0009727Y0309522D01*
X0009854Y0309609D01*
X0009983Y0309691D01*
X0010114Y0309771D01*
X0010247Y0309847D01*
X0010382Y0309920D01*
X0010519Y0309989D01*
X0010658Y0310054D01*
X0010798Y0310116D01*
X0010940Y0310174D01*
X0011083Y0310229D01*
X0011228Y0310280D01*
X0011374Y0310327D01*
X0011521Y0310370D01*
X0011669Y0310409D01*
X0011818Y0310445D01*
X0011968Y0310476D01*
X0012119Y0310504D01*
X0012270Y0310528D01*
X0012423Y0310548D01*
X0012575Y0310564D01*
X0012728Y0310576D01*
X0012881Y0310584D01*
X0013034Y0310588D01*
X0013188Y0310588D01*
X0013341Y0310584D01*
X0013494Y0310576D01*
X0013647Y0310564D01*
X0013799Y0310548D01*
X0013952Y0310528D01*
X0014103Y0310504D01*
X0014254Y0310476D01*
X0014404Y0310445D01*
X0014553Y0310409D01*
X0014701Y0310370D01*
X0014848Y0310327D01*
X0014994Y0310280D01*
X0015139Y0310229D01*
X0015282Y0310174D01*
X0015424Y0310116D01*
X0015564Y0310054D01*
X0015703Y0309989D01*
X0015840Y0309920D01*
X0015975Y0309847D01*
X0016108Y0309771D01*
X0016239Y0309691D01*
X0016368Y0309609D01*
X0016495Y0309522D01*
X0016620Y0309433D01*
X0016742Y0309340D01*
X0016861Y0309244D01*
X0016979Y0309145D01*
X0017093Y0309044D01*
X0017205Y0308939D01*
X0017314Y0308831D01*
X0017420Y0308720D01*
X0017524Y0308607D01*
X0017624Y0308491D01*
X0017722Y0308373D01*
X0017816Y0308252D01*
X0017907Y0308129D01*
X0017995Y0308003D01*
X0018079Y0307875D01*
X0018161Y0307745D01*
X0018238Y0307613D01*
X0018313Y0307479D01*
X0018384Y0307343D01*
X0018451Y0307205D01*
X0018515Y0307065D01*
X0018575Y0306924D01*
X0018631Y0306782D01*
X0018684Y0306638D01*
X0018733Y0306492D01*
X0018778Y0306346D01*
X0018819Y0306198D01*
X0018856Y0306050D01*
X0018890Y0305900D01*
X0018920Y0305749D01*
X0018945Y0305598D01*
X0018967Y0305447D01*
X0018985Y0305294D01*
X0018999Y0305142D01*
X0019009Y0304989D01*
X0019015Y0304835D01*
X0019017Y0304682D01*
X0019015Y0304529D01*
X0019009Y0304375D01*
X0018999Y0304222D01*
X0018985Y0304070D01*
X0018967Y0303917D01*
X0018945Y0303766D01*
X0018920Y0303615D01*
X0018890Y0303464D01*
X0018856Y0303314D01*
X0018819Y0303166D01*
X0018778Y0303018D01*
X0018733Y0302872D01*
X0018684Y0302726D01*
X0018631Y0302582D01*
X0018575Y0302440D01*
X0018515Y0302299D01*
X0018451Y0302159D01*
X0018384Y0302021D01*
X0018313Y0301885D01*
X0018238Y0301751D01*
X0018161Y0301619D01*
X0018079Y0301489D01*
X0017995Y0301361D01*
X0017907Y0301235D01*
X0017816Y0301112D01*
X0017722Y0300991D01*
X0017624Y0300873D01*
X0017524Y0300757D01*
X0017420Y0300644D01*
X0017314Y0300533D01*
X0017205Y0300425D01*
X0017093Y0300320D01*
X0016979Y0300219D01*
X0016861Y0300120D01*
X0016742Y0300024D01*
X0016620Y0299931D01*
X0016495Y0299842D01*
X0016368Y0299755D01*
X0016239Y0299673D01*
X0016108Y0299593D01*
X0015975Y0299517D01*
X0015840Y0299444D01*
X0015703Y0299375D01*
X0015564Y0299310D01*
X0015424Y0299248D01*
X0015282Y0299190D01*
X0015139Y0299135D01*
X0014994Y0299084D01*
X0014848Y0299037D01*
X0014701Y0298994D01*
X0014553Y0298955D01*
X0014404Y0298919D01*
X0014254Y0298888D01*
X0014103Y0298860D01*
X0013952Y0298836D01*
X0013799Y0298816D01*
X0013647Y0298800D01*
X0013494Y0298788D01*
X0013341Y0298780D01*
X0013188Y0298776D01*
X0013034Y0298776D01*
X0012881Y0298780D01*
X0012728Y0298788D01*
X0012575Y0298800D01*
X0012423Y0298816D01*
X0012270Y0298836D01*
X0012119Y0298860D01*
X0011968Y0298888D01*
X0011818Y0298919D01*
X0011669Y0298955D01*
X0011521Y0298994D01*
X0011374Y0299037D01*
X0011228Y0299084D01*
X0011083Y0299135D01*
X0010940Y0299190D01*
X0010798Y0299248D01*
X0010658Y0299310D01*
X0010519Y0299375D01*
X0010382Y0299444D01*
X0010247Y0299517D01*
X0010114Y0299593D01*
X0009983Y0299673D01*
X0009854Y0299755D01*
X0009727Y0299842D01*
X0009602Y0299931D01*
X0009480Y0300024D01*
X0009361Y0300120D01*
X0009243Y0300219D01*
X0009129Y0300320D01*
X0009017Y0300425D01*
X0008908Y0300533D01*
X0008802Y0300644D01*
X0008698Y0300757D01*
X0008598Y0300873D01*
X0008500Y0300991D01*
X0008406Y0301112D01*
X0008315Y0301235D01*
X0008227Y0301361D01*
X0008143Y0301489D01*
X0008061Y0301619D01*
X0007984Y0301751D01*
X0007909Y0301885D01*
X0007838Y0302021D01*
X0007771Y0302159D01*
X0007707Y0302299D01*
X0007647Y0302440D01*
X0007591Y0302582D01*
X0007538Y0302726D01*
X0007489Y0302872D01*
X0007444Y0303018D01*
X0007403Y0303166D01*
X0007366Y0303314D01*
X0007332Y0303464D01*
X0007302Y0303615D01*
X0007277Y0303766D01*
X0007255Y0303917D01*
X0007237Y0304070D01*
X0007223Y0304222D01*
X0007213Y0304375D01*
X0007207Y0304529D01*
X0007205Y0304682D01*
X0007205Y0159012D02*
X0007207Y0159165D01*
X0007213Y0159319D01*
X0007223Y0159472D01*
X0007237Y0159624D01*
X0007255Y0159777D01*
X0007277Y0159928D01*
X0007302Y0160079D01*
X0007332Y0160230D01*
X0007366Y0160380D01*
X0007403Y0160528D01*
X0007444Y0160676D01*
X0007489Y0160822D01*
X0007538Y0160968D01*
X0007591Y0161112D01*
X0007647Y0161254D01*
X0007707Y0161395D01*
X0007771Y0161535D01*
X0007838Y0161673D01*
X0007909Y0161809D01*
X0007984Y0161943D01*
X0008061Y0162075D01*
X0008143Y0162205D01*
X0008227Y0162333D01*
X0008315Y0162459D01*
X0008406Y0162582D01*
X0008500Y0162703D01*
X0008598Y0162821D01*
X0008698Y0162937D01*
X0008802Y0163050D01*
X0008908Y0163161D01*
X0009017Y0163269D01*
X0009129Y0163374D01*
X0009243Y0163475D01*
X0009361Y0163574D01*
X0009480Y0163670D01*
X0009602Y0163763D01*
X0009727Y0163852D01*
X0009854Y0163939D01*
X0009983Y0164021D01*
X0010114Y0164101D01*
X0010247Y0164177D01*
X0010382Y0164250D01*
X0010519Y0164319D01*
X0010658Y0164384D01*
X0010798Y0164446D01*
X0010940Y0164504D01*
X0011083Y0164559D01*
X0011228Y0164610D01*
X0011374Y0164657D01*
X0011521Y0164700D01*
X0011669Y0164739D01*
X0011818Y0164775D01*
X0011968Y0164806D01*
X0012119Y0164834D01*
X0012270Y0164858D01*
X0012423Y0164878D01*
X0012575Y0164894D01*
X0012728Y0164906D01*
X0012881Y0164914D01*
X0013034Y0164918D01*
X0013188Y0164918D01*
X0013341Y0164914D01*
X0013494Y0164906D01*
X0013647Y0164894D01*
X0013799Y0164878D01*
X0013952Y0164858D01*
X0014103Y0164834D01*
X0014254Y0164806D01*
X0014404Y0164775D01*
X0014553Y0164739D01*
X0014701Y0164700D01*
X0014848Y0164657D01*
X0014994Y0164610D01*
X0015139Y0164559D01*
X0015282Y0164504D01*
X0015424Y0164446D01*
X0015564Y0164384D01*
X0015703Y0164319D01*
X0015840Y0164250D01*
X0015975Y0164177D01*
X0016108Y0164101D01*
X0016239Y0164021D01*
X0016368Y0163939D01*
X0016495Y0163852D01*
X0016620Y0163763D01*
X0016742Y0163670D01*
X0016861Y0163574D01*
X0016979Y0163475D01*
X0017093Y0163374D01*
X0017205Y0163269D01*
X0017314Y0163161D01*
X0017420Y0163050D01*
X0017524Y0162937D01*
X0017624Y0162821D01*
X0017722Y0162703D01*
X0017816Y0162582D01*
X0017907Y0162459D01*
X0017995Y0162333D01*
X0018079Y0162205D01*
X0018161Y0162075D01*
X0018238Y0161943D01*
X0018313Y0161809D01*
X0018384Y0161673D01*
X0018451Y0161535D01*
X0018515Y0161395D01*
X0018575Y0161254D01*
X0018631Y0161112D01*
X0018684Y0160968D01*
X0018733Y0160822D01*
X0018778Y0160676D01*
X0018819Y0160528D01*
X0018856Y0160380D01*
X0018890Y0160230D01*
X0018920Y0160079D01*
X0018945Y0159928D01*
X0018967Y0159777D01*
X0018985Y0159624D01*
X0018999Y0159472D01*
X0019009Y0159319D01*
X0019015Y0159165D01*
X0019017Y0159012D01*
X0019015Y0158859D01*
X0019009Y0158705D01*
X0018999Y0158552D01*
X0018985Y0158400D01*
X0018967Y0158247D01*
X0018945Y0158096D01*
X0018920Y0157945D01*
X0018890Y0157794D01*
X0018856Y0157644D01*
X0018819Y0157496D01*
X0018778Y0157348D01*
X0018733Y0157202D01*
X0018684Y0157056D01*
X0018631Y0156912D01*
X0018575Y0156770D01*
X0018515Y0156629D01*
X0018451Y0156489D01*
X0018384Y0156351D01*
X0018313Y0156215D01*
X0018238Y0156081D01*
X0018161Y0155949D01*
X0018079Y0155819D01*
X0017995Y0155691D01*
X0017907Y0155565D01*
X0017816Y0155442D01*
X0017722Y0155321D01*
X0017624Y0155203D01*
X0017524Y0155087D01*
X0017420Y0154974D01*
X0017314Y0154863D01*
X0017205Y0154755D01*
X0017093Y0154650D01*
X0016979Y0154549D01*
X0016861Y0154450D01*
X0016742Y0154354D01*
X0016620Y0154261D01*
X0016495Y0154172D01*
X0016368Y0154085D01*
X0016239Y0154003D01*
X0016108Y0153923D01*
X0015975Y0153847D01*
X0015840Y0153774D01*
X0015703Y0153705D01*
X0015564Y0153640D01*
X0015424Y0153578D01*
X0015282Y0153520D01*
X0015139Y0153465D01*
X0014994Y0153414D01*
X0014848Y0153367D01*
X0014701Y0153324D01*
X0014553Y0153285D01*
X0014404Y0153249D01*
X0014254Y0153218D01*
X0014103Y0153190D01*
X0013952Y0153166D01*
X0013799Y0153146D01*
X0013647Y0153130D01*
X0013494Y0153118D01*
X0013341Y0153110D01*
X0013188Y0153106D01*
X0013034Y0153106D01*
X0012881Y0153110D01*
X0012728Y0153118D01*
X0012575Y0153130D01*
X0012423Y0153146D01*
X0012270Y0153166D01*
X0012119Y0153190D01*
X0011968Y0153218D01*
X0011818Y0153249D01*
X0011669Y0153285D01*
X0011521Y0153324D01*
X0011374Y0153367D01*
X0011228Y0153414D01*
X0011083Y0153465D01*
X0010940Y0153520D01*
X0010798Y0153578D01*
X0010658Y0153640D01*
X0010519Y0153705D01*
X0010382Y0153774D01*
X0010247Y0153847D01*
X0010114Y0153923D01*
X0009983Y0154003D01*
X0009854Y0154085D01*
X0009727Y0154172D01*
X0009602Y0154261D01*
X0009480Y0154354D01*
X0009361Y0154450D01*
X0009243Y0154549D01*
X0009129Y0154650D01*
X0009017Y0154755D01*
X0008908Y0154863D01*
X0008802Y0154974D01*
X0008698Y0155087D01*
X0008598Y0155203D01*
X0008500Y0155321D01*
X0008406Y0155442D01*
X0008315Y0155565D01*
X0008227Y0155691D01*
X0008143Y0155819D01*
X0008061Y0155949D01*
X0007984Y0156081D01*
X0007909Y0156215D01*
X0007838Y0156351D01*
X0007771Y0156489D01*
X0007707Y0156629D01*
X0007647Y0156770D01*
X0007591Y0156912D01*
X0007538Y0157056D01*
X0007489Y0157202D01*
X0007444Y0157348D01*
X0007403Y0157496D01*
X0007366Y0157644D01*
X0007332Y0157794D01*
X0007302Y0157945D01*
X0007277Y0158096D01*
X0007255Y0158247D01*
X0007237Y0158400D01*
X0007223Y0158552D01*
X0007213Y0158705D01*
X0007207Y0158859D01*
X0007205Y0159012D01*
D11*
X0013121Y0145995D02*
X0010068Y0141925D01*
X0013121Y0139918D02*
X0013121Y0135848D01*
X0016173Y0141925D02*
X0013121Y0145995D01*
X0014138Y0127754D02*
X0014138Y0125719D01*
X0015156Y0126737D02*
X0011086Y0126737D01*
X0010068Y0127754D01*
X0010068Y0123703D02*
X0011086Y0122685D01*
X0015156Y0122685D01*
X0014138Y0121668D02*
X0014138Y0123703D01*
X0014138Y0119661D02*
X0010068Y0119661D01*
X0010068Y0116608D01*
X0011086Y0115591D01*
X0014138Y0115591D01*
X0014138Y0113584D02*
X0013121Y0112566D01*
X0013121Y0109514D01*
X0013121Y0112566D02*
X0012103Y0113584D01*
X0011086Y0113584D01*
X0010068Y0112566D01*
X0010068Y0109514D01*
X0016173Y0109514D01*
X0016173Y0112566D01*
X0015156Y0113584D01*
X0014138Y0113584D01*
X0014138Y0101429D02*
X0014138Y0098377D01*
X0013121Y0097359D01*
X0012103Y0098377D01*
X0012103Y0100412D01*
X0011086Y0101429D01*
X0010068Y0100412D01*
X0010068Y0097359D01*
X0010068Y0092314D02*
X0010068Y0088243D01*
X0016173Y0088243D01*
X0016173Y0092314D01*
X0014138Y0094321D02*
X0015156Y0095338D01*
X0017191Y0095338D01*
X0013121Y0090278D02*
X0013121Y0088243D01*
X0013121Y0086236D02*
X0013121Y0082166D01*
X0013121Y0080159D02*
X0012103Y0080159D01*
X0012103Y0076089D01*
X0011086Y0076089D02*
X0013121Y0076089D01*
X0014138Y0077107D01*
X0014138Y0079142D01*
X0013121Y0080159D01*
X0010068Y0079142D02*
X0010068Y0077107D01*
X0011086Y0076089D01*
X0010068Y0074073D02*
X0011086Y0073055D01*
X0015156Y0073055D01*
X0014138Y0072038D02*
X0014138Y0074073D01*
X0014138Y0069004D02*
X0010068Y0069004D01*
X0010068Y0070021D02*
X0010068Y0067986D01*
X0010068Y0065979D02*
X0014138Y0065979D01*
X0014138Y0067986D02*
X0014138Y0069004D01*
X0016173Y0069004D02*
X0017191Y0069004D01*
X0014138Y0061909D02*
X0011086Y0061909D01*
X0010068Y0062926D01*
X0010068Y0065979D01*
X0011086Y0059902D02*
X0010068Y0058884D01*
X0010068Y0056849D01*
X0011086Y0055832D01*
X0013121Y0056849D02*
X0013121Y0058884D01*
X0012103Y0059902D01*
X0011086Y0059902D01*
X0013121Y0056849D02*
X0014138Y0055832D01*
X0015156Y0055832D01*
X0016173Y0056849D01*
X0016173Y0058884D01*
X0015156Y0059902D01*
M02*
