G75*
%MOIN*%
%OFA0B0*%
%FSLAX25Y25*%
%IPPOS*%
%LPD*%
%AMOC8*
5,1,8,0,0,1.08239X$1,22.5*
%
%ADD10C,0.12611*%
%ADD11R,0.06312X0.05131*%
%ADD12R,0.05131X0.06312*%
%ADD13R,0.04343X0.04540*%
%ADD14R,0.02769X0.02769*%
%ADD15C,0.06737*%
%ADD16R,0.04343X0.03950*%
%ADD17R,0.05918X0.06902*%
%ADD18R,0.01784X0.04540*%
%ADD19R,0.04540X0.01784*%
%ADD20R,0.13595X0.13595*%
%ADD21R,0.02965X0.04737*%
%ADD22R,0.08674X0.04619*%
%ADD23R,0.04619X0.08674*%
%ADD24R,0.17729X0.17729*%
%ADD25R,0.03556X0.01981*%
%ADD26R,0.01981X0.03556*%
%ADD27R,0.10643X0.10643*%
%ADD28R,0.05328X0.03162*%
%ADD29R,0.09068X0.07099*%
%ADD30R,0.02375X0.08674*%
%ADD31R,0.08280X0.08280*%
%ADD32C,0.10072*%
%ADD33C,0.13595*%
%ADD34C,0.06824*%
%ADD35C,0.06304*%
%ADD36R,0.05524X0.04540*%
%ADD37C,0.03778*%
D10*
X0013111Y0013343D03*
X0013111Y0159012D03*
X0013111Y0304682D03*
X0304450Y0304682D03*
X0304450Y0159012D03*
X0304450Y0013343D03*
D11*
X0204359Y0041642D03*
X0204359Y0048532D03*
X0188859Y0031532D03*
X0188859Y0024642D03*
X0108859Y0024642D03*
X0108859Y0031532D03*
X0108859Y0066532D03*
X0108859Y0073422D03*
X0076859Y0076032D03*
X0076859Y0082922D03*
X0039359Y0096142D03*
X0039359Y0103032D03*
X0038359Y0159642D03*
X0038359Y0166532D03*
X0048859Y0179642D03*
X0048859Y0186532D03*
X0058859Y0186532D03*
X0058859Y0179642D03*
X0058859Y0196532D03*
X0058859Y0203422D03*
X0073859Y0203422D03*
X0073859Y0196532D03*
X0083859Y0196532D03*
X0083859Y0203422D03*
X0048859Y0221532D03*
X0048859Y0228422D03*
X0048859Y0234642D03*
X0048859Y0241532D03*
X0104859Y0294532D03*
X0104859Y0301422D03*
X0114359Y0301642D03*
X0114359Y0308532D03*
X0123859Y0308532D03*
X0123859Y0301642D03*
X0114359Y0294422D03*
X0114359Y0287532D03*
X0183859Y0196532D03*
X0183859Y0189642D03*
G36*
X0163368Y0164632D02*
X0159220Y0169388D01*
X0163086Y0172760D01*
X0167234Y0168004D01*
X0163368Y0164632D01*
G37*
G36*
X0158176Y0160102D02*
X0154028Y0164858D01*
X0157894Y0168230D01*
X0162042Y0163474D01*
X0158176Y0160102D01*
G37*
G36*
X0164750Y0152567D02*
X0160602Y0157323D01*
X0164468Y0160695D01*
X0168616Y0155939D01*
X0164750Y0152567D01*
G37*
G36*
X0169942Y0157096D02*
X0165794Y0161852D01*
X0169660Y0165224D01*
X0173808Y0160468D01*
X0169942Y0157096D01*
G37*
G36*
X0167904Y0136949D02*
X0163442Y0132487D01*
X0159814Y0136115D01*
X0164276Y0140577D01*
X0167904Y0136949D01*
G37*
G36*
X0172776Y0132077D02*
X0168314Y0127615D01*
X0164686Y0131243D01*
X0169148Y0135705D01*
X0172776Y0132077D01*
G37*
X0143859Y0169642D03*
X0143859Y0176532D03*
G36*
X0132815Y0171920D02*
X0128353Y0167458D01*
X0124725Y0171086D01*
X0129187Y0175548D01*
X0132815Y0171920D01*
G37*
G36*
X0127943Y0176792D02*
X0123481Y0172330D01*
X0119853Y0175958D01*
X0124315Y0180420D01*
X0127943Y0176792D01*
G37*
X0235276Y0159386D03*
X0235276Y0152497D03*
X0235359Y0144032D03*
X0235359Y0137142D03*
D12*
X0243859Y0121532D03*
X0250749Y0121532D03*
X0250749Y0111532D03*
X0243859Y0111532D03*
X0141989Y0120772D03*
X0135099Y0120772D03*
X0125769Y0120890D03*
X0118879Y0120890D03*
X0118879Y0130654D03*
X0125769Y0130654D03*
X0134981Y0130654D03*
X0141871Y0130654D03*
X0125749Y0151532D03*
X0118859Y0151532D03*
X0088859Y0146532D03*
X0081969Y0146532D03*
X0081969Y0136532D03*
X0088859Y0136532D03*
X0088741Y0126611D03*
X0081851Y0126611D03*
X0081969Y0116532D03*
X0088859Y0116532D03*
X0088859Y0106532D03*
X0081969Y0106532D03*
X0081969Y0096532D03*
X0088859Y0096532D03*
X0091359Y0077532D03*
X0084469Y0077532D03*
X0083859Y0051532D03*
X0076969Y0051532D03*
X0057249Y0096032D03*
X0050359Y0096032D03*
X0081969Y0156532D03*
X0088859Y0156532D03*
X0088859Y0166532D03*
X0081969Y0166532D03*
X0056249Y0159532D03*
X0049359Y0159532D03*
X0086969Y0221532D03*
X0093859Y0221532D03*
X0093859Y0231532D03*
X0086969Y0231532D03*
X0109969Y0246532D03*
X0116859Y0246532D03*
X0116859Y0256032D03*
X0109969Y0256032D03*
X0109969Y0265532D03*
X0116859Y0265532D03*
X0157796Y0223973D03*
X0164686Y0223973D03*
X0221969Y0256532D03*
X0228859Y0256532D03*
X0228859Y0266532D03*
X0221969Y0266532D03*
X0243859Y0266532D03*
X0250749Y0266532D03*
X0250749Y0256532D03*
X0243859Y0256532D03*
X0243859Y0246532D03*
X0250749Y0246532D03*
X0250749Y0276532D03*
X0243859Y0276532D03*
X0243859Y0286532D03*
X0250749Y0286532D03*
X0250749Y0296532D03*
X0243859Y0296532D03*
X0060355Y0284997D03*
X0053465Y0284997D03*
D13*
X0073859Y0286532D03*
X0073859Y0274130D03*
D14*
X0065796Y0266032D03*
X0061859Y0266032D03*
X0068922Y0261532D03*
X0072859Y0261532D03*
D15*
X0238859Y0076532D03*
X0238859Y0066689D03*
X0238859Y0056847D03*
X0238859Y0047004D03*
X0238859Y0037162D03*
X0268859Y0037162D03*
X0268859Y0047004D03*
X0268859Y0056847D03*
X0268859Y0066689D03*
X0268859Y0076532D03*
X0268859Y0102004D03*
X0268859Y0111847D03*
X0268859Y0121689D03*
X0268859Y0131532D03*
X0268859Y0177004D03*
X0268859Y0186847D03*
X0268859Y0196689D03*
X0268859Y0206532D03*
X0268859Y0247319D03*
X0268859Y0257162D03*
X0268859Y0267004D03*
X0268859Y0276847D03*
X0268859Y0286689D03*
X0268859Y0296532D03*
X0091202Y0016532D03*
X0081359Y0016532D03*
X0053702Y0016532D03*
X0043859Y0016532D03*
D16*
X0213859Y0034052D03*
X0213859Y0041532D03*
X0221733Y0037792D03*
X0243859Y0129052D03*
X0243859Y0136532D03*
X0251733Y0132792D03*
X0048859Y0201532D03*
X0048859Y0209012D03*
X0040985Y0205272D03*
X0048859Y0251532D03*
X0048859Y0259012D03*
X0040985Y0255272D03*
D17*
X0038359Y0147831D03*
X0056076Y0147831D03*
X0056076Y0116532D03*
X0038359Y0116532D03*
X0039359Y0084331D03*
X0057076Y0084331D03*
X0057076Y0053032D03*
X0039359Y0053032D03*
D18*
X0063859Y0216532D03*
X0065828Y0216532D03*
X0067796Y0216532D03*
X0069765Y0216532D03*
X0071733Y0216532D03*
X0073702Y0216532D03*
X0075670Y0216532D03*
X0075670Y0235430D03*
X0073702Y0235430D03*
X0071733Y0235430D03*
X0069765Y0235430D03*
X0067796Y0235430D03*
X0065828Y0235430D03*
X0063859Y0235430D03*
D19*
X0060316Y0231886D03*
X0060316Y0229918D03*
X0060316Y0227949D03*
X0060316Y0225981D03*
X0060316Y0224012D03*
X0060316Y0222044D03*
X0060316Y0220075D03*
X0079213Y0220075D03*
X0079213Y0222044D03*
X0079213Y0224012D03*
X0079213Y0225981D03*
X0079213Y0227949D03*
X0079213Y0229918D03*
X0079213Y0231886D03*
D20*
X0069765Y0225981D03*
D21*
X0076859Y0070162D03*
X0084339Y0070162D03*
X0084339Y0059532D03*
X0080599Y0059532D03*
X0076859Y0059532D03*
D22*
X0133859Y0241532D03*
X0133859Y0246532D03*
X0133859Y0251532D03*
X0133859Y0256532D03*
X0133859Y0261532D03*
X0133859Y0266532D03*
X0133859Y0271532D03*
X0133859Y0276532D03*
X0133859Y0281532D03*
X0133859Y0286532D03*
X0133859Y0291532D03*
X0133859Y0296532D03*
X0133859Y0301532D03*
X0133859Y0306532D03*
X0204725Y0306532D03*
X0204725Y0301532D03*
X0204725Y0296532D03*
X0204725Y0291532D03*
X0204725Y0286532D03*
X0204725Y0281532D03*
X0204725Y0276532D03*
X0204725Y0271532D03*
X0204725Y0266532D03*
X0204725Y0261532D03*
X0204725Y0256532D03*
X0204725Y0251532D03*
X0204725Y0246532D03*
X0204725Y0241532D03*
D23*
X0191851Y0235626D03*
X0186851Y0235626D03*
X0181851Y0235626D03*
X0176851Y0235626D03*
X0171851Y0235626D03*
X0166851Y0235626D03*
X0161851Y0235626D03*
X0156851Y0235626D03*
X0151851Y0235626D03*
X0146851Y0235626D03*
D24*
X0166536Y0272241D03*
D25*
X0148859Y0156532D03*
X0148859Y0154563D03*
X0148859Y0152595D03*
X0148859Y0150626D03*
X0148859Y0148658D03*
X0148859Y0146689D03*
X0134095Y0146689D03*
X0134095Y0148658D03*
X0134095Y0150626D03*
X0134095Y0152595D03*
X0134095Y0154563D03*
X0134095Y0156532D03*
D26*
X0136556Y0158993D03*
X0138524Y0158993D03*
X0140493Y0158993D03*
X0142461Y0158993D03*
X0144430Y0158993D03*
X0146398Y0158993D03*
X0146398Y0144229D03*
X0144430Y0144229D03*
X0142461Y0144229D03*
X0140493Y0144229D03*
X0138524Y0144229D03*
X0136556Y0144229D03*
D27*
X0141477Y0151611D03*
D28*
X0217859Y0185532D03*
X0217859Y0190532D03*
X0217859Y0195532D03*
X0217859Y0200532D03*
X0240457Y0200532D03*
X0240457Y0195532D03*
X0240457Y0190532D03*
X0240457Y0185532D03*
D29*
X0078859Y0296532D03*
X0054450Y0296532D03*
D30*
X0061536Y0296532D03*
X0064095Y0296532D03*
X0066654Y0296532D03*
X0069213Y0296532D03*
X0071772Y0296532D03*
D31*
X0081615Y0306571D03*
X0051615Y0306571D03*
D32*
X0118859Y0056532D03*
X0179843Y0056532D03*
D33*
X0171851Y0044524D03*
X0126851Y0044524D03*
D34*
X0123249Y0028540D03*
X0133249Y0028540D03*
X0165454Y0028540D03*
X0175454Y0028540D03*
D35*
X0161871Y0069524D03*
X0151871Y0069524D03*
X0141871Y0069524D03*
X0131871Y0069524D03*
X0136871Y0079524D03*
X0146871Y0079524D03*
X0156871Y0079524D03*
X0166871Y0079524D03*
D36*
X0175198Y0204642D03*
X0175198Y0211532D03*
X0183859Y0211532D03*
X0183859Y0204642D03*
D37*
X0189765Y0201296D03*
X0207114Y0205335D03*
X0207114Y0208913D03*
X0207114Y0212491D03*
X0207114Y0216069D03*
X0207523Y0219647D03*
X0207114Y0223225D03*
X0207114Y0226803D03*
X0192736Y0223284D03*
X0189252Y0219800D03*
X0185674Y0219156D03*
X0190883Y0228517D03*
X0194154Y0244012D03*
X0190158Y0261571D03*
X0198699Y0267792D03*
X0198426Y0274367D03*
X0211930Y0253501D03*
X0214460Y0250971D03*
X0210751Y0244143D03*
X0226143Y0232201D03*
X0238898Y0216335D03*
X0242757Y0229839D03*
X0253859Y0221532D03*
X0248859Y0201532D03*
X0249804Y0181414D03*
X0250513Y0163225D03*
X0266221Y0153776D03*
X0303032Y0193461D03*
X0280670Y0227792D03*
X0303032Y0264327D03*
X0280394Y0280705D03*
X0283229Y0308658D03*
X0239489Y0273186D03*
X0236257Y0266575D03*
X0232048Y0247949D03*
X0223032Y0282595D03*
X0232442Y0291965D03*
X0230749Y0308855D03*
X0198288Y0297962D03*
X0178505Y0279143D03*
X0170631Y0268304D03*
X0166694Y0272241D03*
X0160788Y0268304D03*
X0151182Y0272319D03*
X0143422Y0281339D03*
X0127833Y0274249D03*
X0125444Y0263921D03*
X0111576Y0272241D03*
X0092626Y0261217D03*
X0082009Y0275154D03*
X0072835Y0267044D03*
X0077166Y0258934D03*
X0072560Y0257634D03*
X0063426Y0261217D03*
X0059686Y0270784D03*
X0052127Y0266256D03*
X0038111Y0278815D03*
X0041812Y0295430D03*
X0065985Y0306611D03*
X0091891Y0303737D03*
X0142560Y0301571D03*
X0160019Y0297935D03*
X0162690Y0295547D03*
X0178347Y0258579D03*
X0173859Y0241652D03*
X0170281Y0241852D03*
X0174331Y0224918D03*
X0164249Y0216386D03*
X0155879Y0206936D03*
X0163963Y0198832D03*
X0159307Y0191497D03*
X0158181Y0187652D03*
X0155546Y0184708D03*
X0152560Y0182634D03*
X0143853Y0182167D03*
X0133466Y0167913D03*
X0135996Y0165383D03*
X0144850Y0165388D03*
X0148544Y0162556D03*
X0141418Y0153894D03*
X0143702Y0149091D03*
X0138977Y0149091D03*
X0134504Y0141358D03*
X0132835Y0137595D03*
X0136413Y0136580D03*
X0140069Y0136857D03*
X0143647Y0137057D03*
X0155158Y0147831D03*
X0157363Y0134367D03*
X0163501Y0128064D03*
X0170628Y0140587D03*
X0190158Y0121611D03*
X0177442Y0098855D03*
X0196615Y0082634D03*
X0215040Y0056808D03*
X0208308Y0018973D03*
X0168859Y0061532D03*
X0149686Y0049170D03*
X0143269Y0033343D03*
X0155867Y0031296D03*
X0128859Y0061532D03*
X0128505Y0084406D03*
X0128741Y0090487D03*
X0131969Y0099052D03*
X0131851Y0104052D03*
X0137488Y0104091D03*
X0137488Y0099012D03*
X0150119Y0099209D03*
X0149646Y0112398D03*
X0141930Y0114524D03*
X0125080Y0110981D03*
X0109754Y0106542D03*
X0094135Y0116493D03*
X0094686Y0128737D03*
X0110828Y0145487D03*
X0113820Y0143098D03*
X0117398Y0141898D03*
X0117632Y0165012D03*
X0110142Y0181634D03*
X0110076Y0188457D03*
X0119916Y0182538D03*
X0103994Y0210143D03*
X0112465Y0235193D03*
X0107687Y0240784D03*
X0120792Y0234555D03*
X0122622Y0242202D03*
X0130602Y0233833D03*
X0149646Y0247477D03*
X0090198Y0186965D03*
X0075985Y0179052D03*
X0066652Y0191222D03*
X0066851Y0194800D03*
X0066772Y0199327D03*
X0065788Y0206886D03*
X0073281Y0207676D03*
X0056772Y0216178D03*
X0053111Y0216375D03*
X0056271Y0222545D03*
X0054489Y0225823D03*
X0054450Y0231256D03*
X0048820Y0205349D03*
X0015631Y0193461D03*
X0045198Y0138737D03*
X0046457Y0119918D03*
X0064174Y0120233D03*
X0065158Y0138540D03*
X0082324Y0161571D03*
X0088229Y0161532D03*
X0093662Y0161571D03*
X0093938Y0096611D03*
X0107402Y0085745D03*
X0080906Y0069997D03*
X0062717Y0072319D03*
X0047639Y0076689D03*
X0047048Y0054524D03*
X0066497Y0049485D03*
X0068859Y0026532D03*
X0015631Y0043855D03*
X0015631Y0130469D03*
X0019568Y0268264D03*
X0164568Y0184524D03*
X0172520Y0177634D03*
X0167324Y0172241D03*
X0174253Y0164485D03*
X0199450Y0174918D03*
X0225591Y0169682D03*
X0223347Y0154445D03*
X0199568Y0147634D03*
X0227954Y0109288D03*
X0303032Y0110784D03*
X0306969Y0039918D03*
X0274174Y0019288D03*
X0207314Y0201757D03*
M02*
