%
M48
M72
T01C0.01378
T02C0.03504
T03C0.03937
T04C0.04016
T05C0.06181
T06C0.11811
T07C0.12795
%
T01
X15631Y43855
X47048Y54524
X62717Y72319
X47639Y76689
X66497Y49485
X80906Y69997
X93938Y96611
X107402Y85745
X109754Y106542
X125080Y110981
X131851Y104052
X131969Y99052
X137488Y99012
X137488Y104091
X141930Y114524
X149646Y112398
X150119Y99209
X128741Y90487
X128505Y84406
X128859Y61532
X149686Y49170
X143269Y33343
X155867Y31296
X168859Y61532
X196615Y82634
X177442Y98855
X190158Y121611
X170628Y140587
X163501Y128064
X157363Y134367
X155158Y147831
X143702Y149091
X141418Y153894
X138977Y149091
X134504Y141358
X132835Y137595
X136413Y136580
X140069Y136857
X143647Y137057
X148544Y162556
X144850Y165388
X135996Y165383
X133466Y167913
X143853Y182167
X152560Y182634
X155546Y184708
X158181Y187652
X159307Y191497
X163963Y198832
X155879Y206936
X164249Y216386
X174331Y224918
X185674Y219156
X189252Y219800
X192736Y223284
X190883Y228517
X194154Y244012
X190158Y261571
X198699Y267792
X198426Y274367
X211930Y253501
X214460Y250971
X210751Y244143
X226143Y232201
X238898Y216335
X242757Y229839
X253859Y221532
X248859Y201532
X249804Y181414
X250513Y163225
X266221Y153776
X303032Y193461
X280670Y227792
X303032Y264327
X280394Y280705
X283229Y308658
X239489Y273186
X236257Y266575
X232048Y247949
X207114Y226803
X207114Y223225
X207523Y219647
X207114Y216069
X207114Y212491
X207114Y208913
X207114Y205335
X207314Y201757
X189765Y201296
X172520Y177634
X167324Y172241
X174253Y164485
X164568Y184524
X199450Y174918
X225591Y169682
X223347Y154445
X199568Y147634
X227954Y109288
X215040Y56808
X208308Y18973
X274174Y19288
X306969Y39918
X303032Y110784
X173859Y241652
X170281Y241852
X178347Y258579
X170631Y268304
X166694Y272241
X160788Y268304
X151182Y272319
X143422Y281339
X127833Y274249
X125444Y263921
X111576Y272241
X92626Y261217
X82009Y275154
X72835Y267044
X77166Y258934
X72560Y257634
X63426Y261217
X59686Y270784
X52127Y266256
X38111Y278815
X41812Y295430
X65985Y306611
X91891Y303737
X142560Y301571
X160019Y297935
X162690Y295547
X178505Y279143
X198288Y297962
X223032Y282595
X232442Y291965
X230749Y308855
X149646Y247477
X130602Y233833
X122622Y242202
X120792Y234555
X112465Y235193
X107687Y240784
X103994Y210143
X110076Y188457
X110142Y181634
X119916Y182538
X117632Y165012
X110828Y145487
X113820Y143098
X117398Y141898
X94686Y128737
X94135Y116493
X64174Y120233
X46457Y119918
X45198Y138737
X65158Y138540
X82324Y161571
X88229Y161532
X93662Y161571
X75985Y179052
X66652Y191222
X66851Y194800
X66772Y199327
X65788Y206886
X73281Y207676
X56772Y216178
X53111Y216375
X56271Y222545
X54489Y225823
X54450Y231256
X48820Y205349
X15631Y193461
X15631Y130469
X90198Y186965
X19568Y268264
X68859Y26532
T02
X131871Y69524
X141871Y69524
X151871Y69524
X161871Y69524
X166871Y79524
X156871Y79524
X146871Y79524
X136871Y79524
T03
X91202Y16532
X81359Y16532
X53702Y16532
X43859Y16532
X238859Y37162
X238859Y47004
X238859Y56847
X238859Y66689
X238859Y76532
X268859Y76532
X268859Y66689
X268859Y56847
X268859Y47004
X268859Y37162
X268859Y102004
X268859Y111847
X268859Y121689
X268859Y131532
X268859Y177004
X268859Y186847
X268859Y196689
X268859Y206532
X268859Y247319
X268859Y257162
X268859Y267004
X268859Y276847
X268859Y286689
X268859Y296532
T04
X175454Y28540
X165454Y28540
X133249Y28540
X123249Y28540
T05
X118859Y56532
X179843Y56532
T06
X13111Y13343
X13111Y159012
X13111Y304682
X304450Y304682
X304450Y159012
X304450Y13343
T07
X171851Y44524
X126851Y44524
M30
